<svg version="1.1" id="Layer_1" xmlns="http://www.w3.org/2000/svg" xmlns:xlink="http://www.w3.org/1999/xlink" x="0" y="0" viewBox="0 0 1966 946" xml:space="preserve"><style>.st0{enable-background:new}.st1{fill:#af7c4d}.st3{fill:#7c5837}.st4{fill:#7d5837}.st5{fill:#7d5937}.st6{fill:#7e5937}.st7{fill:#7e5938}.st8{fill:#7f5a38}.st9{fill:#805b38}.st10{fill:#805b39}.st11{fill:#815b39}.st12{fill:#825c39}.st13{fill:#825c3a}.st14{fill:#835d3a}.st15{fill:#845d3a}.st16{fill:#845e3a}.st17{fill:#855e3b}.st18{fill:#855f3b}.st19{fill:#865f3b}.st20{fill:#875f3b}.st21{fill:#87603c}.st22{fill:#88603c}.st23{fill:#88613c}.st24{fill:#89613c}.st25{fill:#89613d}.st26{fill:#8a623d}.st27{fill:#8b623d}.st28{fill:#8b633d}.st29{fill:#8b633e}.st30{fill:#8c633e}.st31{fill:#8d643e}.st32{fill:#8e643f}.st33{fill:#8e653f}.st34{fill:#8f653f}.st35{fill:#8f663f}.st36{fill:#90663f}.st37{fill:#906640}.st38{fill:#916740}.st39{fill:#926740}.st40{fill:#926841}.st41{fill:#936841}.st42{fill:#946941}.st43{fill:#956942}.st44{fill:#956a42}.st45{fill:#966a42}.st46{fill:#976b43}.st47{fill:#986b43}.st48{fill:#986c43}.st49{fill:#996c43}.st50{fill:#996d44}.st51{fill:#9a6d44}.st52{fill:#9b6e44}.st53{fill:#9b6e45}.st54{fill:#9c6e45}.st55{fill:#9c6f45}.st56{fill:#9d6f45}.st57{fill:#9e7046}.st58{fill:#9f7046}.st59{fill:#9f7146}.st60{fill:#a07147}.st61{fill:#a07247}.st62{fill:#a17247}.st63{fill:#a27247}.st64{fill:#a27347}.st65{fill:#a27348}.st66{fill:#a37348}.st67{fill:#a37448}.st68{fill:#a47448}.st69{fill:#a57549}.st70{fill:#a67649}.st71{fill:#a7764a}.st72{fill:#a8774a}.st73{fill:#a9784b}.st74{fill:#aa784b}.st75{fill:#aa794b}.st76{fill:#ab794b}.st77{fill:#ab794c}.st78{fill:#ac7a4c}.st79{fill:#ad7a4c}.st80{fill:#ad7b4c}.st81{fill:#ae7b4d}.st84{fill:#b07d4e}.st85{fill:#b17d4e}.st86{fill:#b27e4e}.st87{fill:#b27e4f}.st88{fill:#b37f4f}.st89{fill:#b47f4f}.st90{fill:#b4804f}.st91{fill:#b58050}.st92{fill:#b58150}.st93{fill:#b68150}.st94{fill:#b78151}.st95{fill:#b78251}.st96{fill:#b88251}.st97{fill:#b88351}.st98{fill:#b98352}.st99{fill:#ba8452}.st100{fill:#bb8452}.st101{fill:#bb8553}.st102{fill:#bc8553}.st103{fill:#bd8653}.st104{fill:#be8654}.st105{fill:#be8754}.st106{fill:#bf8754}.st107{fill:#bf8854}.st108{fill:#c08855}.st109{fill:#c18955}.st110{fill:#c28955}.st111{fill:#c28956}.st112{fill:#c28a56}.st113{fill:#c38a56}.st114{fill:#c48b56}.st115{fill:#c48b57}.st116{fill:#c58b57}.st117{fill:#c58c57}.st118{fill:#c68c57}.st119{fill:#c78d58}.st120{fill:#c88d58}.st121{fill:#c88e58}.st122{fill:#c98e59}.st123{fill:#c98f59}.st124{fill:#ca8f59}.st125{fill:#cb9059}.st126{fill:#cb905a}.st127{fill:#cc905a}.st128{fill:#cc915a}.st129{fill:#cd915a}.st130{fill:#cd915b}.st131{fill:#ce925b}.st132{fill:#cf935b}.st133{fill:#cf935c}.st134{fill:#d0935c}.st135{fill:#d0945c}.st136{fill:#d1945c}.st137{fill:#d2945c}.st138{fill:#d2955d}.st139{fill:#d3955d}.st140{fill:#d3965d}.st141{fill:#d4965d}.st142{fill:#d4965e}.st143{fill:#d5975e}.st144{fill:#d6985e}.st145{fill:#d6985f}.st146{fill:#d7985f}.st147{fill:#d8995f}.st148{fill:#d89960}.st149{fill:#d99a60}.st150{fill:#da9a60}.st151{fill:#da9b60}.st152{fill:#db9b60}.st153{fill:#db9b61}.st154{fill:#dc9c61}.st155{fill:#dd9c61}.st156{fill:#dd9d62}.st157{fill:#de9d62}.st158{fill:#de9e62}.st159{fill:#df9e62}.st160{fill:#df9e63}.st161{fill:#e09f63}.st162{fill:#e19f63}.st163{fill:#e2a064}.st164{fill:#e3a164}.st165{fill:#e4a164}.st166{fill:#e4a265}.st167{fill:#e5a265}.st168{fill:#e5a365}.st169{fill:#e6a365}.st170{fill:#e6a366}.st171{fill:#e7a366}.st172{fill:#e7a466}.st173{fill:#e8a466}.st174{fill:#e8a567}.st175{fill:#e9a567}.st176{fill:#eaa667}.st177{fill:#eba668}.st178{fill:#eba768}.st179{fill:#eca768}.st180{fill:#eda868}.st181{fill:#eda869}.st182{fill:#eea869}.st183{fill:#eea969}.st184{fill:#efa969}.st185{fill:#efaa6a}.st186{fill:#f0aa6a}.st187{fill:#f1aa6a}.st188{fill:#f1ab6a}.st189{fill:#f2ab6b}.st190{fill:#f2ac6b}.st191{fill:#f3ac6b}.st192{fill:#f4ad6c}.st193{fill:#f5ad6c}.st194{fill:#f5ae6c}.st195{fill:#f6ae6c}.st196{fill:#f6ae6d}.st197{fill:#f7af6d}.st198{fill:#f7af6e}.st199{fill:#f7b06e}.st200{fill:#f7b06f}.st201{fill:#f7b070}.st202{fill:#f7b170}.st203{fill:#f7b171}.st204{fill:#f7b172}.st205{fill:#f7b272}.st206{fill:#f7b273}.st207{fill:#f7b373}.st208{fill:#f7b374}.st209{fill:#f7b375}</style><g id="XMLID_1030_"><g id="XMLID_1_"><g id="XMLID_3_" class="st0"><g id="XMLID_958_"><path id="XMLID_959_" class="st1" d="M993.2 452.6c14.7-8.4 2.3-18.4-27.7-22.4s-66.2-.5-80.9 7.8-2.3 18.4 27.7 22.4 66.2.5 80.9-7.8z"/></g><g id="XMLID_744_" class="st0"><defs><path id="XMLID_957_" class="st0" d="M939.3 643.2l53.9-190.6c-14.7 8.4-50.9 11.9-80.9 7.8-19.8-2.7-31.9-7.9-33.6-13.6 20.2 65.5 40.4 130.9 60.6 196.4z"/></defs><clipPath id="XMLID_1032_"><use xlink:href="#XMLID_957_" overflow="visible"/></clipPath><g id="XMLID_745_" clip-path="url(#XMLID_1032_)"><path id="XMLID_956_" class="st3" d="M993.2 452.6l-53.9 190.6 43.4-186.4c4.2-1.2 7.7-2.6 10.5-4.2"/><path id="XMLID_955_" class="st3" d="M982.7 456.8l-43.4 186.4 42-186c.5-.1.9-.3 1.4-.4"/><path id="XMLID_954_" class="st4" d="M981.3 457.2l-42 186 40.9-185.7c.4-.1.7-.2 1.1-.3"/><path id="XMLID_953_" class="st5" d="M980.2 457.5l-40.9 185.7 39.8-185.5c.4 0 .8-.1 1.1-.2"/><path id="XMLID_952_" class="st6" d="M979.1 457.8l-39.8 185.5L978.2 458c.3-.1.6-.2.9-.2"/><path id="XMLID_951_" class="st7" d="M978.2 458l-38.9 185.2 38.2-185.1c.3 0 .5-.1.7-.1"/><path id="XMLID_950_" class="st8" d="M977.5 458.2l-38.2 185.1 37.5-184.9c.3-.1.5-.2.7-.2"/><path id="XMLID_949_" class="st8" d="M976.8 458.3l-37.5 184.9 36.8-184.7c.2-.1.5-.1.7-.2"/><path id="XMLID_948_" class="st8" d="M976.1 458.5l-36.8 184.7 36-184.6c.3 0 .5-.1.8-.1"/><path id="XMLID_947_" class="st9" d="M975.3 458.6l-36 184.6 35.4-184.4c.2-.1.4-.1.6-.2"/><path id="XMLID_946_" class="st10" d="M974.7 458.8l-35.4 184.4 34.8-184.3c.2 0 .4-.1.6-.1"/><path id="XMLID_945_" class="st11" d="M974.1 458.9l-34.8 184.3L973.5 459c.2 0 .4-.1.6-.1"/><path id="XMLID_944_" class="st11" d="M973.5 459l-34.2 184.2 33.6-184.1c.2 0 .4-.1.6-.1"/><path id="XMLID_943_" class="st12" d="M972.9 459.1l-33.6 184.1 33-184c.2 0 .4 0 .6-.1"/><path id="XMLID_942_" class="st12" d="M972.3 459.2l-33 184 32.4-183.9c.2 0 .4 0 .6-.1"/><path id="XMLID_941_" class="st13" d="M971.7 459.3l-32.4 183.9 31.8-183.8c.2 0 .4 0 .6-.1"/><path id="XMLID_940_" class="st14" d="M971.1 459.4l-31.8 183.8 31.3-183.7c.2 0 .4 0 .5-.1"/><path id="XMLID_939_" class="st14" d="M970.6 459.5l-31.3 183.7 30.8-183.6c.2 0 .3 0 .5-.1"/><path id="XMLID_938_" class="st15" d="M970.1 459.6l-30.8 183.6 30.3-183.5c.2 0 .3 0 .5-.1"/><path id="XMLID_937_" class="st16" d="M969.6 459.7l-30.3 183.5 29.8-183.4c.2 0 .3-.1.5-.1"/><path id="XMLID_936_" class="st17" d="M969.1 459.8l-29.8 183.4 29.3-183.3c.1-.1.3-.1.5-.1"/><path id="XMLID_935_" class="st17" d="M968.6 459.9l-29.3 183.3L968 460c.2-.1.4-.1.6-.1"/><path id="XMLID_934_" class="st18" d="M968 460l-28.7 183.3L967.5 460h.5"/><path id="XMLID_933_" class="st19" d="M967.5 460l-28.2 183.2L967 460.1c.2 0 .3 0 .5-.1"/><path id="XMLID_932_" class="st19" d="M967 460.1l-27.7 183.1 27.2-183c.2 0 .3-.1.5-.1"/><path id="XMLID_931_" class="st20" d="M966.5 460.2l-27.2 183 26.8-183h.4"/><path id="XMLID_930_" class="st21" d="M966.1 460.2l-26.8 183 26.3-182.9c.1 0 .3 0 .5-.1"/><path id="XMLID_929_" class="st22" d="M965.6 460.3l-26.3 182.9 25.8-182.8c.2 0 .3-.1.5-.1"/><path id="XMLID_928_" class="st22" d="M965.1 460.4l-25.8 182.8 25.3-182.8h.5"/><path id="XMLID_927_" class="st23" d="M964.6 460.4l-25.3 182.8 24.9-182.7c.1 0 .3 0 .4-.1"/><path id="XMLID_926_" class="st24" d="M964.2 460.5l-24.9 182.7 24.4-182.6c.1-.1.3-.1.5-.1"/><path id="XMLID_925_" class="st25" d="M963.7 460.6l-24.4 182.6 23.9-182.6h.5"/><path id="XMLID_924_" class="st26" d="M963.2 460.6l-23.9 182.6 23.4-182.5c.2 0 .3-.1.5-.1"/><path id="XMLID_923_" class="st26" d="M962.7 460.7l-23.4 182.5 23-182.5h.4"/><path id="XMLID_922_" class="st27" d="M962.3 460.7l-23 182.5 22.5-182.4c.2 0 .3 0 .5-.1"/><path id="XMLID_921_" class="st28" d="M961.8 460.8l-22.5 182.4 22.1-182.4h.4"/><path id="XMLID_920_" class="st29" d="M961.4 460.8l-22.1 182.4 21.6-182.3c.2 0 .3 0 .5-.1"/><path id="XMLID_919_" class="st30" d="M960.9 460.9l-21.6 182.3 21.2-182.3h.4"/><path id="XMLID_918_" class="st30" d="M960.5 460.9l-21.2 182.3L960 461c.2 0 .3 0 .5-.1"/><path id="XMLID_917_" class="st31" d="M960 461l-20.7 182.2L959.5 461h.5"/><path id="XMLID_916_" class="st31" d="M959.5 461l-20.2 182.2 19.8-182.1c.1 0 .3 0 .4-.1"/><path id="XMLID_915_" class="st32" d="M959.1 461.1l-19.8 182.1 19.3-182.1h.5"/><path id="XMLID_914_" class="st33" d="M958.6 461.1l-19.3 182.1 18.9-182c.1 0 .3-.1.4-.1"/><path id="XMLID_913_" class="st34" d="M958.2 461.2l-18.9 182 18.4-182h.5"/><path id="XMLID_912_" class="st34" d="M957.7 461.2l-18.4 182 18-182h.4"/><path id="XMLID_911_" class="st35" d="M957.3 461.3l-18 182 17.5-181.9c.2-.1.3-.1.5-.1"/><path id="XMLID_910_" class="st36" d="M956.8 461.3l-17.5 181.9 17.1-181.9h.4"/><path id="XMLID_909_" class="st37" d="M956.4 461.3l-17.1 181.9 16.6-181.8c.2 0 .3-.1.5-.1"/><path id="XMLID_908_" class="st38" d="M955.9 461.4l-16.6 181.8 16.2-181.8h.4"/><path id="XMLID_907_" class="st38" d="M955.5 461.4l-16.2 181.8L955 461.4h.5"/><path id="XMLID_906_" class="st39" d="M955.1 461.4l-15.7 181.8 15.3-181.7c.1 0 .2 0 .4-.1"/><path id="XMLID_905_" class="st39" d="M954.6 461.5l-15.3 181.7 14.8-181.7h.5"/><path id="XMLID_904_" class="st40" d="M954.2 461.5l-14.8 181.7 14.4-181.7h.4"/><path id="XMLID_903_" class="st41" d="M953.7 461.5l-14.4 181.7 14-181.6c.1 0 .3 0 .4-.1"/><path id="XMLID_902_" class="st41" d="M953.3 461.6l-14 181.6 13.5-181.6h.5"/><path id="XMLID_901_" class="st42" d="M952.8 461.6l-13.5 181.6 13.1-181.6h.4"/><path id="XMLID_900_" class="st42" d="M952.4 461.6l-13.1 181.6 12.6-181.5c.2 0 .3-.1.5-.1"/><path id="XMLID_899_" class="st43" d="M951.9 461.7l-12.6 181.5 12.2-181.5h.4"/><path id="XMLID_898_" class="st44" d="M951.5 461.7l-12.2 181.5L951 461.7h.5"/><path id="XMLID_897_" class="st44" d="M951 461.7l-11.7 181.5 11.3-181.5h.4"/><path id="XMLID_896_" class="st45" d="M950.6 461.7l-11.3 181.5 10.8-181.4c.2 0 .3 0 .5-.1"/><path id="XMLID_895_" class="st45" d="M950.1 461.8l-10.8 181.4 10.4-181.4h.4"/><path id="XMLID_894_" class="st46" d="M949.7 461.8l-10.4 181.4 9.9-181.4h.5"/><path id="XMLID_893_" class="st46" d="M949.2 461.8l-9.9 181.4 9.4-181.4h.5"/><path id="XMLID_892_" class="st47" d="M948.7 461.8l-9.4 181.4 9-181.3c.1 0 .3-.1.4-.1"/><path id="XMLID_891_" class="st48" d="M948.3 461.9l-9 181.3 8.5-181.3h.5"/><path id="XMLID_890_" class="st48" d="M947.8 461.9l-8.5 181.3 8.1-181.3h.4"/><path id="XMLID_889_" class="st49" d="M947.4 461.9l-8.1 181.3 7.6-181.3h.5"/><path id="XMLID_888_" class="st50" d="M946.9 461.9l-7.6 181.3 7.1-181.3h.5"/><path id="XMLID_887_" class="st51" d="M946.4 461.9l-7.1 181.3L946 462c.1-.1.3-.1.4-.1"/><path id="XMLID_886_" class="st51" d="M946 462l-6.7 181.3 6.2-181.2c.2-.1.3-.1.5-.1"/><path id="XMLID_885_" class="st52" d="M945.5 462l-6.2 181.2 5.8-181.2h.4"/><path id="XMLID_884_" class="st52" d="M945.1 462l-5.8 181.2 5.3-181.2h.5"/><path id="XMLID_883_" class="st53" d="M944.6 462l-5.3 181.2 4.8-181.2h.5"/><path id="XMLID_882_" class="st54" d="M944.1 462l-4.8 181.2 4.3-181.2h.5"/><path id="XMLID_881_" class="st55" d="M943.6 462l-4.3 181.2 3.8-181.2h.5"/><path id="XMLID_880_" class="st56" d="M943.1 462l-3.8 181.2 3.3-181.2h.5"/><path id="XMLID_879_" class="st56" d="M942.6 462l-3.3 181.2 2.9-181.2c.1.1.3 0 .4 0"/><path id="XMLID_878_" class="st57" d="M942.2 462.1l-2.9 181.2 2.4-181.2h.5"/><path id="XMLID_877_" class="st57" d="M941.7 462.1l-2.4 181.2 1.9-181.1c.1-.1.3-.1.5-.1"/><path id="XMLID_876_" class="st58" d="M941.2 462.1l-1.9 181.1 1.4-181.1h.5"/><path id="XMLID_875_" class="st59" d="M940.7 462.1l-1.4 181.1.9-181.1h.5"/><path id="XMLID_874_" class="st59" d="M940.2 462.1l-.9 181.1.4-181.1h.5"/><path id="XMLID_873_" class="st60" d="M939.7 462.1l-.4 181.1-.1-181.1h.5"/><path id="XMLID_872_" class="st61" d="M939.2 462l.1 181.1-.7-181.1h.4"/><path id="XMLID_871_" class="st62" d="M938.8 462.1l.6 181.1-1.3-181.2h.9"/><path id="XMLID_870_" class="st62" d="M938.1 462.1l1.2 181.1-1.7-181.1h.5"/><path id="XMLID_869_" class="st63" d="M937.6 462.1l1.7 181.1-2.2-181.1h.5"/><path id="XMLID_868_" class="st64" d="M937.1 462.1l2.2 181.1-2.8-181.1h.6"/><path id="XMLID_867_" class="st65" d="M936.5 462.1l2.8 181.1-3.3-181.1h.5"/><path id="XMLID_866_" class="st66" d="M936 462.1l3.3 181.1-3.8-181.2c.1.1.3.1.5.1"/><path id="XMLID_865_" class="st67" d="M935.5 462.1l3.8 181.2-4.4-181.2h.6"/><path id="XMLID_864_" class="st68" d="M934.9 462.1l4.4 181.2-5-181.2c.2-.1.4-.1.6 0"/><path id="XMLID_863_" class="st68" d="M934.3 462l5 181.2-5.6-181.2h.6"/><path id="XMLID_862_" class="st69" d="M933.7 462l5.6 181.2-6.2-181.2h.6"/><path id="XMLID_861_" class="st69" d="M933.1 462l6.2 181.2-6.8-181.2h.6"/><path id="XMLID_860_" class="st69" d="M932.5 462l6.8 181.2-7.4-181.2h.6"/><path id="XMLID_859_" class="st70" d="M931.9 462l7.4 181.2-8-181.2h.6"/><path id="XMLID_858_" class="st70" d="M931.3 462l8 181.2-8.6-181.3c.2.1.4.1.6.1"/><path id="XMLID_857_" class="st71" d="M930.7 461.9l8.6 181.3-9.3-181.3h.7"/><path id="XMLID_856_" class="st71" d="M930.1 461.9l9.3 181.3-9.9-181.3h.6"/><path id="XMLID_855_" class="st72" d="M929.4 461.9l9.9 181.3-10.6-181.4c.2.1.4.1.7.1"/><path id="XMLID_854_" class="st72" d="M928.7 461.9l10.6 181.4L928 461.8c.2 0 .4 0 .7.1"/><path id="XMLID_853_" class="st72" d="M928 461.8l11.3 181.4-12-181.4h.7"/><path id="XMLID_852_" class="st73" d="M927.3 461.8l12 181.4-12.7-181.5c.2.1.4.1.7.1"/><path id="XMLID_851_" class="st73" d="M926.6 461.8l12.7 181.5-13.5-181.5c.3-.1.5-.1.8 0"/><path id="XMLID_850_" class="st74" d="M925.8 461.7l13.5 181.5-14.4-181.6c.3.1.6.1.9.1"/><path id="XMLID_849_" class="st75" d="M924.9 461.7l14.4 181.6-15.2-181.6c.3-.1.5-.1.8 0"/><path id="XMLID_848_" class="st76" d="M924.1 461.6l15.2 181.6-16.1-181.7c.3.1.6.1.9.1"/><path id="XMLID_847_" class="st76" d="M923.2 461.5l16.1 181.7-17-181.7h.9"/><path id="XMLID_846_" class="st77" d="M922.3 461.5l17 181.7-17.9-181.8c.3 0 .6 0 .9.1"/><path id="XMLID_845_" class="st78" d="M921.4 461.4l17.9 181.8-19.2-181.9c.5 0 .9.1 1.3.1"/><path id="XMLID_844_" class="st78" d="M920.1 461.3l19.2 181.9-20.4-182c.4 0 .8 0 1.2.1"/><path id="XMLID_843_" class="st79" d="M918.9 461.2l20.4 182L917.6 461c.4.1.8.1 1.3.2"/><path id="XMLID_842_" class="st80" d="M917.6 461l21.7 182.2-23.5-182.4c.6.1 1.2.2 1.8.2"/><path id="XMLID_841_" class="st81" d="M915.8 460.8l23.5 182.4-26-182.7c.8.1 1.7.2 2.5.3"/><path id="XMLID_840_" class="st81" d="M913.3 460.5l26 182.7-32-183.6c1.6.3 3.3.5 5 .8.3.1.7.1 1 .1"/><path id="XMLID_839_" class="st81" d="M907.3 459.7l32 183.6-34.1-183.9c.7 0 1.4.1 2.1.3"/><path id="XMLID_838_" class="st80" d="M905.2 459.3l34.1 183.9L903.5 459c.6.1 1.2.2 1.7.3"/><path id="XMLID_837_" class="st79" d="M903.5 459l35.8 184.2-36.8-184.5c.3.1.7.2 1 .3"/><path id="XMLID_836_" class="st78" d="M902.5 458.8l36.8 184.5-37.8-184.7c.3 0 .7.1 1 .2"/><path id="XMLID_835_" class="st78" d="M901.5 458.5l37.8 184.7-38.8-184.9c.3.1.6.2 1 .2"/><path id="XMLID_834_" class="st77" d="M900.5 458.3l38.8 184.9-39.6-185.1c.2.1.5.2.8.2"/><path id="XMLID_833_" class="st76" d="M899.7 458.1l39.6 185.1L899 458c.2 0 .5.1.7.1"/><path id="XMLID_832_" class="st76" d="M899 458l40.3 185.2-41-185.4c.3.1.5.1.7.2"/><path id="XMLID_831_" class="st75" d="M898.3 457.8l41 185.4-41.6-185.6c.2.1.4.2.6.2"/><path id="XMLID_830_" class="st74" d="M897.7 457.6l41.6 185.6L897 457.5c.3 0 .5.1.7.1"/><path id="XMLID_829_" class="st73" d="M897.1 457.5l42.3 185.7-42.9-185.9c.1.1.3.1.6.2"/><path id="XMLID_828_" class="st73" d="M896.4 457.3l42.9 185.9-43.4-186c.2 0 .4.1.5.1"/><path id="XMLID_827_" class="st72" d="M895.9 457.2l43.4 186L895.5 457c.1.1.3.1.4.2"/><path id="XMLID_826_" class="st72" d="M895.5 457l43.8 186.2L895 456.9c.1 0 .3.1.5.1"/><path id="XMLID_825_" class="st72" d="M895 456.9l44.3 186.3-44.8-186.5c.2.1.3.2.5.2"/><path id="XMLID_824_" class="st71" d="M894.5 456.8l44.8 186.5L894 456.6c.2.1.4.1.5.2"/><path id="XMLID_823_" class="st71" d="M894 456.6l45.3 186.6-45.7-186.7c.1 0 .3.1.4.1"/><path id="XMLID_822_" class="st70" d="M893.6 456.5l45.7 186.7-46.2-186.9c.2.1.3.1.5.2"/><path id="XMLID_821_" class="st70" d="M893.1 456.3l46.2 186.9-46.5-187c.1.1.2.1.3.1"/><path id="XMLID_820_" class="st69" d="M892.8 456.2l46.5 187-46.9-187.1c.1 0 .2.1.4.1"/><path id="XMLID_819_" class="st69" d="M892.4 456.1l46.9 187.1L892 456c.1 0 .3 0 .4.1"/><path id="XMLID_818_" class="st69" d="M892 456l47.3 187.2-47.7-187.4c.2.1.3.1.4.2"/><path id="XMLID_817_" class="st68" d="M891.6 455.8l47.7 187.4-48-187.5c.1.1.2.1.3.1"/><path id="XMLID_816_" class="st68" d="M891.3 455.7l48 187.5-48.4-187.6c.1 0 .3.1.4.1"/><path id="XMLID_815_" class="st67" d="M890.9 455.6l48.4 187.6-48.7-187.8c.1.1.2.1.3.2"/><path id="XMLID_814_" class="st66" d="M890.6 455.5l48.7 187.8-49.1-187.9c.1 0 .3 0 .4.1"/><path id="XMLID_813_" class="st65" d="M890.2 455.3l49.1 187.9-49.4-188c.1 0 .2.1.3.1"/><path id="XMLID_812_" class="st64" d="M889.9 455.2l49.4 188-49.7-188.1c.1 0 .2.1.3.1"/><path id="XMLID_811_" class="st63" d="M889.6 455.1l49.7 188.1-50-188.2c.1 0 .2.1.3.1"/><path id="XMLID_810_" class="st62" d="M889.3 455l50 188.2L889 454.9c.1 0 .2 0 .3.1"/><path id="XMLID_809_" class="st62" d="M889 454.9l50.3 188.4-50.6-188.5c.1 0 .2 0 .3.1"/><path id="XMLID_808_" class="st61" d="M888.7 454.7l50.6 188.5-50.9-188.6c.1.1.2.1.3.1"/><path id="XMLID_807_" class="st60" d="M888.4 454.6l50.9 188.6-51.1-188.7s.1.1.2.1"/><path id="XMLID_806_" class="st59" d="M888.2 454.5l51.1 188.7-51.4-188.8c.1 0 .2 0 .3.1"/><path id="XMLID_805_" class="st59" d="M887.9 454.4l51.4 188.8-51.7-189c.1.1.2.1.3.2"/><path id="XMLID_804_" class="st58" d="M887.6 454.2l51.7 189-52-189.1c.1.1.2.1.3.1"/><path id="XMLID_803_" class="st57" d="M887.3 454.1l52 189.1L887.1 454c.1.1.2.1.2.1"/><path id="XMLID_802_" class="st57" d="M887.1 454l52.2 189.2-52.5-189.3c.1 0 .2.1.3.1"/><path id="XMLID_801_" class="st56" d="M886.8 453.9l52.5 189.3-52.7-189.4c.1 0 .2.1.2.1"/><path id="XMLID_800_" class="st56" d="M886.6 453.8l52.7 189.4-52.9-189.5s.1 0 .2.1"/><path id="XMLID_799_" class="st55" d="M886.4 453.7l52.9 189.5-53.2-189.7c.1.1.2.1.3.2"/><path id="XMLID_798_" class="st54" d="M886.1 453.6l53.2 189.7-53.4-189.8c.1 0 .1 0 .2.1"/><path id="XMLID_797_" class="st53" d="M885.9 453.4l53.4 189.8-53.6-189.9c0 .1.1.1.2.1"/><path id="XMLID_796_" class="st52" d="M885.7 453.3l53.6 189.9-53.9-190c.1 0 .2.1.3.1"/><path id="XMLID_795_" class="st52" d="M885.4 453.2l53.9 190-54.1-190.1c.1 0 .2.1.2.1"/><path id="XMLID_794_" class="st51" d="M885.2 453.1l54.1 190.1L885 453c.1 0 .1 0 .2.1"/><path id="XMLID_793_" class="st51" d="M885 453l54.3 190.2-54.5-190.4.2.2"/><path id="XMLID_792_" class="st50" d="M884.8 452.9l54.5 190.4-54.7-190.5c.1 0 .1 0 .2.1"/><path id="XMLID_791_" class="st49" d="M884.6 452.7l54.7 190.5-54.9-190.6c.1.1.1.1.2.1"/><path id="XMLID_790_" class="st48" d="M884.4 452.6l54.9 190.6-55.1-190.7c.1 0 .1.1.2.1"/><path id="XMLID_789_" class="st48" d="M884.2 452.5l55.1 190.7L884 452.4c.1 0 .1.1.2.1"/><path id="XMLID_788_" class="st47" d="M884 452.4l55.3 190.8-55.5-190.9c.1 0 .1 0 .2.1"/><path id="XMLID_787_" class="st46" d="M883.8 452.3l55.5 190.9-55.7-191.1.2.2"/><path id="XMLID_786_" class="st46" d="M883.6 452.1l55.7 191.1L883.4 452c.1.1.1.1.2.1"/><path id="XMLID_785_" class="st45" d="M883.4 452l55.9 191.2-56.1-191.3c.1.1.2.1.2.1"/><path id="XMLID_784_" class="st45" d="M883.2 451.9l56.1 191.3-56.2-191.4.1.1"/><path id="XMLID_783_" class="st44" d="M883.1 451.8l56.2 191.4-56.4-191.5s.1.1.2.1"/><path id="XMLID_782_" class="st44" d="M882.9 451.7l56.4 191.5-56.6-191.7.2.2"/><path id="XMLID_781_" class="st43" d="M882.7 451.6l56.6 191.7-56.8-191.8c.1 0 .2 0 .2.1"/><path id="XMLID_780_" class="st42" d="M882.6 451.4l56.8 191.8-56.9-191.9c-.1.1 0 .1.1.1"/><path id="XMLID_779_" class="st42" d="M882.4 451.3l56.9 191.9-57.1-192c.1 0 .1.1.2.1"/><path id="XMLID_778_" class="st41" d="M882.2 451.2l57.1 192-57.2-192.1.1.1"/><path id="XMLID_777_" class="st41" d="M882.1 451.1l57.2 192.1L881.9 451c.1 0 .1 0 .2.1"/><path id="XMLID_776_" class="st40" d="M881.9 451l57.4 192.2-57.5-192.4c0 .1.1.1.1.2"/><path id="XMLID_775_" class="st39" d="M881.8 450.8l57.5 192.4-57.7-192.5c.1.1.1.1.2.1"/><path id="XMLID_774_" class="st39" d="M881.6 450.7l57.7 192.5-57.8-192.6.1.1"/><path id="XMLID_773_" class="st38" d="M881.5 450.6l57.8 192.6-58-192.7c.1 0 .1.1.2.1"/><path id="XMLID_772_" class="st38" d="M881.3 450.5l58 192.7-58.1-192.9c0 .1.1.1.1.2"/><path id="XMLID_771_" class="st37" d="M881.2 450.4l58.1 192.9-58.3-193c.1 0 .1 0 .2.1"/><path id="XMLID_770_" class="st36" d="M881 450.2l58.3 193-58.4-193.1c.1 0 .1.1.1.1"/><path id="XMLID_769_" class="st35" d="M880.9 450.1l58.4 193.1L880.8 450l.1.1"/><path id="XMLID_768_" class="st34" d="M880.8 450l58.5 193.2-58.6-193.4c0 .1 0 .1.1.2"/><path id="XMLID_767_" class="st34" d="M880.7 449.9l58.6 193.4-58.8-193.5c.1 0 .1 0 .2.1"/><path id="XMLID_766_" class="st33" d="M880.5 449.7l58.8 193.5-58.9-193.6c.1 0 .1.1.1.1"/><path id="XMLID_765_" class="st32" d="M880.4 449.6l58.9 193.6-59-193.7.1.1"/><path id="XMLID_764_" class="st31" d="M880.3 449.5l59 193.7-59.1-193.9c0 .1.1.1.1.2"/><path id="XMLID_763_" class="st31" d="M880.2 449.3l59.1 193.9-59.2-194c0 .1 0 .1.1.1"/><path id="XMLID_762_" class="st30" d="M880.1 449.2l59.2 194L880 449.1s0 .1.1.1"/><path id="XMLID_761_" class="st30" d="M880 449.1l59.3 194.1-59.4-194.3c0 .1 0 .1.1.2"/><path id="XMLID_760_" class="st29" d="M879.9 448.9l59.4 194.3-59.6-194.4c.1.1.1.1.2.1"/><path id="XMLID_759_" class="st28" d="M879.8 448.8l59.6 194.4-59.6-194.5c-.1 0-.1.1 0 .1"/><path id="XMLID_758_" class="st27" d="M879.7 448.7l59.6 194.5-59.7-194.7c0 .1 0 .1.1.2"/><path id="XMLID_757_" class="st26" d="M879.6 448.5l59.7 194.7-59.8-194.8c0 .1 0 .1.1.1"/><path id="XMLID_756_" class="st26" d="M879.5 448.4l59.8 194.8-59.9-194.9s0 .1.1.1"/><path id="XMLID_755_" class="st25" d="M879.4 448.3l59.9 194.9-60-195.1c0 .1 0 .1.1.2"/><path id="XMLID_754_" class="st24" d="M879.3 448.1l60 195.1L879.2 448l.1.1"/><path id="XMLID_753_" class="st23" d="M879.2 448l60.1 195.2-60.2-195.4c.1.1.1.1.1.2"/><path id="XMLID_752_" class="st22" d="M879.1 447.8l60.2 195.4L879 447.7c.1 0 .1.1.1.1"/><path id="XMLID_751_" class="st22" d="M879.1 447.7l60.3 195.5L879 447.6l.1.1"/><path id="XMLID_750_" class="st21" d="M879 447.6l60.3 195.7-60.4-195.8s.1 0 .1.1"/><path id="XMLID_749_" class="st20" d="M878.9 447.4l60.4 195.8-60.4-196v.2"/><path id="XMLID_748_" class="st19" d="M878.9 447.3l60.4 196-60.5-196.1.1.1"/><path id="XMLID_747_" class="st19" d="M878.8 447.1l60.5 196.1L878.7 447c.1 0 .1.1.1.1"/><path id="XMLID_746_" class="st18" d="M878.7 447l60.6 196.3-60.6-196.4v.1"/></g></g><g id="XMLID_740_" class="st0"><defs><path id="XMLID_743_" class="st0" d="M999.2 446.6c-.6 2-2.6 4-6 6l-53.9 190.6c20-65.5 39.9-131.1 59.9-196.6z"/></defs><clipPath id="XMLID_1033_"><use xlink:href="#XMLID_743_" overflow="visible"/></clipPath><g id="XMLID_741_" clip-path="url(#XMLID_1033_)"><path id="XMLID_742_" class="st3" d="M999.2 446.6l-59.9 196.6 53.9-190.6c3.4-1.9 5.4-4 6-6"/></g></g><g id="XMLID_4_" class="st0"><defs><path id="XMLID_739_" class="st0" d="M878.7 446.8c20.2 65.5 40.4 130.9 60.6 196.4 20-65.5 39.9-131.1 59.9-196.6 2-6.7-10.6-13.3-33.6-16.4-30-4-66.2-.5-80.9 7.8-5 2.8-6.9 5.9-6 8.8z"/></defs><clipPath id="XMLID_1034_"><use xlink:href="#XMLID_739_" overflow="visible"/></clipPath><g id="XMLID_5_" clip-path="url(#XMLID_1034_)"><path id="XMLID_738_" class="st3" d="M878.7 446.8l60.6 196.4-56.9-203.8c-3.3 2.5-4.5 5-3.7 7.4"/><path id="XMLID_737_" class="st3" d="M882.4 439.4l56.9 203.8L883.1 439c-.2.1-.5.3-.7.4"/><path id="XMLID_736_" class="st4" d="M883.1 439l56.2 204.3-55.7-204.6c-.1 0-.3.1-.5.3"/><path id="XMLID_735_" class="st5" d="M883.7 438.6l55.7 204.6-55.1-205c-.3.2-.5.3-.6.4"/><path id="XMLID_734_" class="st6" d="M884.2 438.2l55.1 205-54.5-205.3s-.1 0-.1.1c-.2.1-.3.2-.5.2"/><path id="XMLID_733_" class="st7" d="M884.8 437.9l54.5 205.3-54.1-205.5c-.2.1-.3.2-.4.2"/><path id="XMLID_732_" class="st8" d="M885.2 437.7l54.1 205.5-53.8-205.7c-.1.1-.2.1-.3.2"/><path id="XMLID_731_" class="st8" d="M885.5 437.5l53.8 205.7-53.4-205.9c-.1.1-.2.1-.4.2"/><path id="XMLID_730_" class="st8" d="M885.9 437.3l53.4 205.9-52.9-206.1c-.2.1-.3.1-.5.2"/><path id="XMLID_729_" class="st9" d="M886.4 437.1l52.9 206.1-52.5-206.3c-.2.1-.3.1-.4.2"/><path id="XMLID_728_" class="st10" d="M886.8 436.9l52.5 206.3-52.2-206.5c-.1.1-.2.1-.3.2"/><path id="XMLID_727_" class="st11" d="M887.1 436.7l52.2 206.5-51.8-206.6c-.1 0-.2.1-.4.1"/><path id="XMLID_726_" class="st11" d="M887.5 436.6l51.8 206.6-51.5-206.8c-.1.1-.2.1-.3.2"/><path id="XMLID_725_" class="st12" d="M887.8 436.4l51.5 206.8-51.2-206.9c-.1 0-.2.1-.3.1"/><path id="XMLID_724_" class="st12" d="M888.1 436.3l51.2 206.9-50.9-207.1c-.1.1-.2.1-.3.2"/><path id="XMLID_723_" class="st13" d="M888.4 436.2l50.9 207.1L888.7 436c-.1.1-.2.1-.3.2"/><path id="XMLID_722_" class="st14" d="M888.7 436l50.6 207.2-50.2-207.3c-.1 0-.2.1-.4.1"/><path id="XMLID_721_" class="st14" d="M889.1 435.9l50.2 207.3-49.9-207.5c-.1.1-.2.1-.3.2"/><path id="XMLID_720_" class="st15" d="M889.4 435.7l49.9 207.5-49.6-207.6c-.1.1-.2.1-.3.1"/><path id="XMLID_719_" class="st16" d="M889.7 435.6l49.6 207.6L890 435.5c-.1 0-.2.1-.3.1"/><path id="XMLID_718_" class="st17" d="M890 435.5l49.3 207.7-49-207.8c-.1 0-.2.1-.3.1"/><path id="XMLID_717_" class="st17" d="M890.3 435.4l49 207.8-48.7-207.9c-.1 0-.2.1-.3.1"/><path id="XMLID_716_" class="st18" d="M890.6 435.3l48.7 207.9-48.5-208s-.1.1-.2.1"/><path id="XMLID_715_" class="st19" d="M890.8 435.2l48.5 208-48.2-208.1c-.1 0-.2.1-.3.1"/><path id="XMLID_714_" class="st19" d="M891.1 435.1l48.2 208.1L891.4 435c-.1 0-.2.1-.3.1"/><path id="XMLID_713_" class="st20" d="M891.4 435l47.9 208.2-47.6-208.3c-.1 0-.2.1-.3.1"/><path id="XMLID_712_" class="st21" d="M891.7 434.9l47.6 208.3L892 434.8c-.1 0-.2.1-.3.1"/><path id="XMLID_711_" class="st22" d="M892 434.8l47.3 208.4-47-208.5c-.1 0-.2.1-.3.1"/><path id="XMLID_710_" class="st22" d="M892.3 434.7l47 208.5-46.7-208.6c-.1 0-.2.1-.3.1"/><path id="XMLID_709_" class="st23" d="M892.6 434.6l46.7 208.6-46.5-208.7s-.1.1-.2.1"/><path id="XMLID_708_" class="st24" d="M892.8 434.5l46.5 208.7-46.2-208.8c-.1 0-.2.1-.3.1"/><path id="XMLID_707_" class="st25" d="M893.1 434.4l46.2 208.8-46-208.9c0 .1-.1.1-.2.1"/><path id="XMLID_706_" class="st26" d="M893.4 434.3l46 208.9-45.7-209c-.2.1-.3.1-.3.1"/><path id="XMLID_705_" class="st26" d="M893.6 434.3l45.7 209-45.4-209c-.1-.1-.2-.1-.3 0"/><path id="XMLID_704_" class="st27" d="M893.9 434.2l45.4 209-45.2-209.1c-.1 0-.1 0-.2.1"/><path id="XMLID_703_" class="st28" d="M894.1 434.1l45.2 209.1L894.4 434c-.1 0-.2.1-.3.1"/><path id="XMLID_702_" class="st29" d="M894.4 434l44.9 209.2-44.7-209.3c0 .1-.1.1-.2.1"/><path id="XMLID_701_" class="st30" d="M894.7 433.9l44.7 209.3L895 433.8c-.2.1-.3.1-.3.1"/><path id="XMLID_700_" class="st30" d="M894.9 433.9l44.4 209.4-44.1-209.4c-.1-.1-.2-.1-.3 0"/><path id="XMLID_699_" class="st31" d="M895.2 433.8l44.1 209.4-43.9-209.5s-.1 0-.2.1"/><path id="XMLID_698_" class="st31" d="M895.4 433.7l43.9 209.5-43.6-209.6c-.1 0-.2.1-.3.1"/><path id="XMLID_697_" class="st32" d="M895.7 433.6l43.6 209.6L896 433.5c-.1.1-.2.1-.3.1"/><path id="XMLID_696_" class="st33" d="M896 433.5l43.3 209.7-43.1-209.7h-.2"/><path id="XMLID_695_" class="st34" d="M896.2 433.5l43.1 209.7-42.8-209.8c-.1 0-.2.1-.3.1"/><path id="XMLID_694_" class="st34" d="M896.5 433.4l42.8 209.8-42.6-209.9c-.1.1-.2.1-.2.1"/><path id="XMLID_693_" class="st35" d="M896.7 433.3l42.6 209.9-42.4-209.9h-.2"/><path id="XMLID_692_" class="st36" d="M896.9 433.3l42.4 209.9-42.1-210c-.1 0-.2.1-.3.1"/><path id="XMLID_691_" class="st37" d="M897.2 433.2l42.1 210-41.9-210.1c-.1.1-.1.1-.2.1"/><path id="XMLID_690_" class="st38" d="M897.4 433.1l41.9 210.1-41.6-210.1h-.3"/><path id="XMLID_689_" class="st38" d="M897.7 433.1l41.6 210.1L897.9 433c-.1 0-.1.1-.2.1"/><path id="XMLID_688_" class="st39" d="M897.9 433l41.4 210.2L898.2 433h-.3"/><path id="XMLID_687_" class="st39" d="M898.2 433l41.1 210.3L898.4 433c-.1-.1-.1-.1-.2 0"/><path id="XMLID_686_" class="st40" d="M898.4 432.9l40.9 210.3-40.6-210.4c-.1 0-.2.1-.3.1"/><path id="XMLID_685_" class="st41" d="M898.7 432.8l40.6 210.4-40.4-210.4h-.2"/><path id="XMLID_684_" class="st41" d="M898.9 432.8l40.4 210.4-40.1-210.5c-.1 0-.2 0-.3.1"/><path id="XMLID_683_" class="st42" d="M899.2 432.7l40.1 210.5-39.9-210.6c-.1.1-.1.1-.2.1"/><path id="XMLID_682_" class="st42" d="M899.4 432.6l39.9 210.6-39.6-210.6h-.3"/><path id="XMLID_681_" class="st43" d="M899.7 432.6l39.6 210.6-39.4-210.7c-.1.1-.2.1-.2.1"/><path id="XMLID_680_" class="st44" d="M899.9 432.5l39.4 210.7-39.2-210.7h-.2"/><path id="XMLID_679_" class="st44" d="M900.1 432.5l39.2 210.7-38.9-210.8c-.1 0-.2.1-.3.1"/><path id="XMLID_678_" class="st45" d="M900.4 432.4l38.9 210.8-38.7-210.8h-.2"/><path id="XMLID_677_" class="st45" d="M900.6 432.4l38.7 210.8-38.5-210.9s-.1.1-.2.1"/><path id="XMLID_676_" class="st46" d="M900.8 432.3l38.5 210.9-38.2-211c-.1.1-.2.1-.3.1"/><path id="XMLID_675_" class="st46" d="M901.1 432.3l38.2 211-38-211c-.1-.1-.1-.1-.2 0"/><path id="XMLID_674_" class="st47" d="M901.3 432.2l38 211-37.7-211.1c-.1.1-.2.1-.3.1"/><path id="XMLID_673_" class="st48" d="M901.6 432.2l37.7 211.1-37.5-211.1c-.1-.1-.2-.1-.2 0"/><path id="XMLID_672_" class="st48" d="M901.8 432.1l37.5 211.1L902 432c0 .1-.1.1-.2.1"/><path id="XMLID_671_" class="st49" d="M902 432l37.3 211.2-37-211.2h-.3"/><path id="XMLID_670_" class="st50" d="M902.3 432l37 211.2-36.8-211.3c0 .1-.1.1-.2.1"/><path id="XMLID_669_" class="st51" d="M902.5 431.9l36.8 211.3-36.5-211.3h-.3"/><path id="XMLID_668_" class="st51" d="M902.8 431.9l36.5 211.3L903 431.8c-.1.1-.1.1-.2.1"/><path id="XMLID_667_" class="st52" d="M903 431.8l36.3 211.4-36.1-211.4h-.2"/><path id="XMLID_666_" class="st52" d="M903.2 431.8l36.1 211.4-35.8-211.5c-.1.1-.2.1-.3.1"/><path id="XMLID_665_" class="st53" d="M903.5 431.7l35.8 211.5-35.6-211.5h-.2"/><path id="XMLID_664_" class="st54" d="M903.7 431.7l35.6 211.5-35.4-211.6c0 .1-.1.1-.2.1"/><path id="XMLID_663_" class="st55" d="M903.9 431.7l35.4 211.6-35.1-211.6c-.1-.1-.2-.1-.3 0"/><path id="XMLID_662_" class="st56" d="M904.2 431.6l35.1 211.6-34.9-211.6h-.2"/><path id="XMLID_661_" class="st56" d="M904.4 431.6l34.9 211.6-34.7-211.7s-.1 0-.2.1"/><path id="XMLID_660_" class="st57" d="M904.6 431.5l34.7 211.7-34.4-211.7h-.3"/><path id="XMLID_659_" class="st57" d="M904.9 431.5l34.4 211.7-34.2-211.8c-.1 0-.1.1-.2.1"/><path id="XMLID_658_" class="st58" d="M905.1 431.4l34.2 211.8-33.9-211.8h-.3"/><path id="XMLID_657_" class="st59" d="M905.4 431.4l33.9 211.8-33.7-211.9c-.1.1-.2.1-.2.1"/><path id="XMLID_656_" class="st59" d="M905.6 431.3l33.7 211.9-33.5-211.9h-.2"/><path id="XMLID_655_" class="st60" d="M905.8 431.3l33.5 211.9-33.2-212c-.1.1-.2.1-.3.1"/><path id="XMLID_654_" class="st61" d="M906.1 431.3l33.2 212-33-212c-.1-.1-.2-.1-.2 0"/><path id="XMLID_653_" class="st62" d="M906.3 431.2l33 212-32.8-212h-.2"/><path id="XMLID_652_" class="st62" d="M906.5 431.2l32.8 212-32.5-212.1c-.1 0-.2.1-.3.1"/><path id="XMLID_651_" class="st63" d="M906.8 431.1l32.5 212.1L907 431.1h-.2"/><path id="XMLID_650_" class="st64" d="M907 431.1l32.3 212.1-32-212.2c-.1.1-.2.1-.3.1"/><path id="XMLID_649_" class="st65" d="M907.3 431l32 212.2L907.5 431h-.2"/><path id="XMLID_648_" class="st66" d="M907.5 431l31.8 212.2L907.7 431h-.2"/><path id="XMLID_647_" class="st67" d="M907.7 431l31.6 212.2L908 430.9c-.1 0-.2.1-.3.1"/><path id="XMLID_646_" class="st68" d="M908 430.9l31.4 212.3-31.1-212.3h-.3"/><path id="XMLID_645_" class="st68" d="M908.2 430.9l31.1 212.3-30.9-212.4c-.1.1-.1.1-.2.1"/><path id="XMLID_644_" class="st69" d="M908.4 430.8l30.9 212.4-30.6-212.4h-.3"/><path id="XMLID_643_" class="st69" d="M908.7 430.8l30.6 212.4-30.4-212.4h-.2"/><path id="XMLID_642_" class="st69" d="M908.9 430.8l30.4 212.4-30.2-212.5c-.1 0-.1.1-.2.1"/><path id="XMLID_641_" class="st70" d="M909.1 430.7l30.2 212.5-29.9-212.5h-.3"/><path id="XMLID_640_" class="st70" d="M909.4 430.7l29.9 212.5-29.7-212.6c-.1.1-.2.1-.2.1"/><path id="XMLID_639_" class="st71" d="M909.6 430.7l29.7 212.6-29.5-212.6c0-.1-.1-.1-.2 0"/><path id="XMLID_638_" class="st71" d="M909.8 430.6l29.5 212.6-29.2-212.6h-.3"/><path id="XMLID_637_" class="st72" d="M910.1 430.6l29.2 212.6-29-212.7c-.1.1-.1.1-.2.1"/><path id="XMLID_636_" class="st72" d="M910.3 430.5l29 212.7-28.7-212.7h-.3"/><path id="XMLID_635_" class="st72" d="M910.6 430.5l28.7 212.7-28.5-212.7h-.2"/><path id="XMLID_634_" class="st73" d="M910.8 430.5l28.5 212.7L911 430.4c0 .1-.1.1-.2.1"/><path id="XMLID_633_" class="st73" d="M911 430.4l28.3 212.8-28-212.8h-.3"/><path id="XMLID_632_" class="st74" d="M911.3 430.4l28 212.8-27.8-212.8h-.2"/><path id="XMLID_631_" class="st75" d="M911.5 430.4l27.8 212.8-27.6-212.9c0 .1-.1.1-.2.1"/><path id="XMLID_630_" class="st76" d="M911.7 430.3l27.6 212.9L912 430.3h-.3"/><path id="XMLID_629_" class="st76" d="M912 430.3l27.3 212.9-27.1-212.9h-.2"/><path id="XMLID_628_" class="st77" d="M912.2 430.3l27.1 212.9-26.9-213c0 .1-.1.1-.2.1"/><path id="XMLID_627_" class="st78" d="M912.4 430.2l26.9 213-26.6-213h-.3"/><path id="XMLID_626_" class="st78" d="M912.7 430.2l26.6 213-26.4-213h-.2"/><path id="XMLID_625_" class="st79" d="M912.9 430.2l26.4 213-26.1-213.1c-.1.1-.2.1-.3.1"/><path id="XMLID_624_" class="st80" d="M913.2 430.1l26.1 213.1-25.9-213.1h-.2"/><path id="XMLID_623_" class="st81" d="M913.4 430.1l25.9 213.1-25.7-213.1h-.2"/><path id="XMLID_622_" class="st81" d="M913.6 430.1l25.7 213.1L913.9 430c-.1.1-.2.1-.3.1"/><path id="XMLID_621_" class="st1" d="M913.9 430.1l25.4 213.2L914.1 430c-.1 0-.1 0-.2.1"/><path id="XMLID_620_" class="st1" d="M914.1 430l25.2 213.2L914.4 430h-.3"/><path id="XMLID_619_" class="st1" d="M914.4 430l24.9 213.2L914.6 430h-.2"/><path id="XMLID_618_" class="st84" d="M914.6 430l24.7 213.2-24.5-213.3s-.1.1-.2.1"/><path id="XMLID_617_" class="st84" d="M914.8 429.9l24.5 213.3-24.2-213.3h-.3"/><path id="XMLID_616_" class="st85" d="M915.1 429.9l24.2 213.3-24-213.3h-.2"/><path id="XMLID_615_" class="st85" d="M915.3 429.9l24 213.3-23.7-213.4c-.1.1-.2.1-.3.1"/><path id="XMLID_614_" class="st86" d="M915.6 429.8l23.7 213.4-23.5-213.4h-.2"/><path id="XMLID_613_" class="st87" d="M915.8 429.8l23.5 213.4L916 429.8h-.2"/><path id="XMLID_612_" class="st87" d="M916 429.8l23.3 213.4-23-213.4h-.3"/><path id="XMLID_611_" class="st88" d="M916.3 429.8l23 213.4-22.8-213.5c-.1 0-.2.1-.2.1"/><path id="XMLID_610_" class="st88" d="M916.5 429.7l22.8 213.5-22.6-213.5h-.2"/><path id="XMLID_609_" class="st89" d="M916.7 429.7l22.6 213.5L917 429.7h-.3"/><path id="XMLID_608_" class="st90" d="M917 429.7l22.3 213.5-22.1-213.6c-.1.1-.1.1-.2.1"/><path id="XMLID_607_" class="st91" d="M917.2 429.7l22.1 213.6-21.8-213.6c-.1-.1-.2-.1-.3 0"/><path id="XMLID_606_" class="st91" d="M917.5 429.6l21.8 213.6-21.6-213.6h-.2"/><path id="XMLID_605_" class="st92" d="M917.7 429.6l21.6 213.6L918 429.6h-.3"/><path id="XMLID_604_" class="st93" d="M918 429.6l21.4 213.6-21.1-213.7c-.2.1-.3.1-.3.1"/><path id="XMLID_603_" class="st93" d="M918.2 429.6l21.1 213.7-20.9-213.7c0-.1-.1-.1-.2 0"/><path id="XMLID_602_" class="st94" d="M918.4 429.5l20.9 213.7-20.6-213.7h-.3"/><path id="XMLID_601_" class="st95" d="M918.7 429.5l20.6 213.7-20.4-213.7h-.2"/><path id="XMLID_600_" class="st96" d="M918.9 429.5l20.4 213.7-20.1-213.8c-.1.1-.2.1-.3.1"/><path id="XMLID_599_" class="st96" d="M919.2 429.5l20.1 213.8-19.9-213.8c-.1-.1-.2 0-.2 0"/><path id="XMLID_598_" class="st97" d="M919.4 429.4l19.9 213.8-19.7-213.8h-.2"/><path id="XMLID_597_" class="st98" d="M919.6 429.4l19.7 213.8-19.4-213.8h-.3"/><path id="XMLID_596_" class="st98" d="M919.9 429.4l19.4 213.8-19.2-213.8h-.2"/><path id="XMLID_595_" class="st99" d="M920.1 429.4l19.2 213.8-19-213.9c0 .1-.1.1-.2.1"/><path id="XMLID_594_" class="st99" d="M920.3 429.3l19 213.9-18.7-213.9h-.3"/><path id="XMLID_593_" class="st100" d="M920.6 429.3l18.7 213.9-18.5-213.9h-.2"/><path id="XMLID_592_" class="st101" d="M920.8 429.3l18.5 213.9L921 429.3h-.2"/><path id="XMLID_591_" class="st101" d="M921 429.3l18.3 213.9-18-213.9h-.3"/><path id="XMLID_590_" class="st102" d="M921.3 429.3l18 213.9-17.8-214c-.1 0-.1.1-.2.1"/><path id="XMLID_589_" class="st102" d="M921.5 429.2l17.8 214-17.5-214h-.3"/><path id="XMLID_588_" class="st103" d="M921.8 429.2l17.5 214-17.3-214h-.2"/><path id="XMLID_587_" class="st103" d="M922 429.2l17.3 214-17.1-214h-.2"/><path id="XMLID_586_" class="st104" d="M922.2 429.2l17.1 214-16.8-214h-.3"/><path id="XMLID_585_" class="st105" d="M922.5 429.2l16.8 214-16.6-214.1c-.1.1-.2.1-.2.1"/><path id="XMLID_584_" class="st105" d="M922.7 429.1l16.6 214.1-16.4-214.1h-.2"/><path id="XMLID_583_" class="st106" d="M922.9 429.1l16.4 214.1-16.1-214.1h-.3"/><path id="XMLID_582_" class="st107" d="M923.2 429.1l16.1 214.1-15.9-214.1h-.2"/><path id="XMLID_581_" class="st108" d="M923.4 429.1l15.9 214.1-15.6-214.1h-.3"/><path id="XMLID_580_" class="st108" d="M923.7 429.1l15.6 214.1L923.9 429c-.1.1-.2.1-.2.1"/><path id="XMLID_579_" class="st109" d="M923.9 429.1l15.4 214.2L924.1 429c-.1 0-.1 0-.2.1"/><path id="XMLID_578_" class="st109" d="M924.1 429l15.2 214.2-15-214.2h-.2"/><path id="XMLID_577_" class="st110" d="M924.3 429l15 214.2L924.5 429h-.2"/><path id="XMLID_576_" class="st111" d="M924.5 429l14.8 214.2L924.7 429h-.2"/><path id="XMLID_575_" class="st112" d="M924.7 429l14.6 214.2L924.9 429h-.2"/><path id="XMLID_574_" class="st113" d="M924.9 429l14.4 214.2L925.1 429h-.2"/><path id="XMLID_573_" class="st113" d="M925.1 429l14.2 214.2-14-214.3c0 .1-.1.1-.2.1"/><path id="XMLID_572_" class="st114" d="M925.3 429l14 214.3L925.6 429c-.1-.1-.2-.1-.3 0"/><path id="XMLID_571_" class="st115" d="M925.6 428.9l13.7 214.3-13.5-214.3h-.2"/><path id="XMLID_570_" class="st116" d="M925.8 428.9l13.5 214.3L926 428.9h-.2"/><path id="XMLID_569_" class="st117" d="M926 428.9l13.3 214.3-13.1-214.3h-.2"/><path id="XMLID_568_" class="st117" d="M926.2 428.9l13.1 214.3-12.9-214.3h-.2"/><path id="XMLID_567_" class="st118" d="M926.4 428.9l12.9 214.3-12.7-214.3h-.2"/><path id="XMLID_566_" class="st118" d="M926.6 428.9l12.7 214.3-12.5-214.4c-.1.1-.1.1-.2.1"/><path id="XMLID_565_" class="st119" d="M926.8 428.9l12.5 214.4L927 428.8c0 .1-.1.1-.2.1"/><path id="XMLID_564_" class="st119" d="M927 428.8l12.3 214.4-12.1-214.4h-.2"/><path id="XMLID_563_" class="st120" d="M927.2 428.8l12.1 214.4-11.9-214.4h-.2"/><path id="XMLID_562_" class="st121" d="M927.4 428.8l11.9 214.4-11.6-214.4h-.3"/><path id="XMLID_561_" class="st121" d="M927.7 428.8l11.6 214.4-11.4-214.4h-.2"/><path id="XMLID_560_" class="st122" d="M927.9 428.8l11.4 214.4-11.2-214.4h-.2"/><path id="XMLID_559_" class="st123" d="M928.1 428.8l11.2 214.4-11-214.4h-.2"/><path id="XMLID_558_" class="st124" d="M928.3 428.8l11 214.4-10.8-214.4h-.2"/><path id="XMLID_557_" class="st124" d="M928.5 428.8l10.8 214.4-10.7-214.4h-.1"/><path id="XMLID_556_" class="st125" d="M928.6 428.8l10.7 214.4-10.5-214.5c-.1.1-.1.1-.2.1"/><path id="XMLID_555_" class="st126" d="M928.8 428.8l10.5 214.5-10.4-214.5c0-.1-.1 0-.1 0"/><path id="XMLID_554_" class="st126" d="M928.9 428.7l10.4 214.5-10.2-214.5h-.2"/><path id="XMLID_553_" class="st127" d="M929.1 428.7l10.2 214.5-10-214.5h-.2"/><path id="XMLID_552_" class="st128" d="M929.3 428.7l10 214.5-9.9-214.5h-.1"/><path id="XMLID_551_" class="st129" d="M929.4 428.7l9.9 214.5-9.7-214.5h-.2"/><path id="XMLID_550_" class="st130" d="M929.6 428.7l9.7 214.5-9.6-214.5h-.1"/><path id="XMLID_549_" class="st131" d="M929.7 428.7l9.6 214.5-9.4-214.5h-.2"/><path id="XMLID_548_" class="st131" d="M929.9 428.7l9.4 214.5-9.2-214.5h-.2"/><path id="XMLID_547_" class="st131" d="M930.1 428.7l9.2 214.5-9.1-214.5h-.1"/><path id="XMLID_546_" class="st132" d="M930.2 428.7l9.1 214.5-8.9-214.5h-.2"/><path id="XMLID_545_" class="st133" d="M930.4 428.7l8.9 214.5-8.7-214.5h-.2"/><path id="XMLID_544_" class="st134" d="M930.6 428.7l8.7 214.5-8.6-214.5h-.1"/><path id="XMLID_543_" class="st135" d="M930.7 428.7l8.6 214.5-8.4-214.5h-.2"/><path id="XMLID_542_" class="st136" d="M930.9 428.7l8.4 214.5-8.3-214.5h-.1"/><path id="XMLID_541_" class="st136" d="M931 428.7l8.3 214.6-8.1-214.6h-.2"/><path id="XMLID_540_" class="st137" d="M931.2 428.7l8.1 214.6-7.9-214.6c-.1-.1-.1-.1-.2 0"/><path id="XMLID_539_" class="st138" d="M931.4 428.6l7.9 214.6-7.8-214.6h-.1"/><path id="XMLID_538_" class="st138" d="M931.5 428.6l7.8 214.6-7.6-214.6h-.2"/><path id="XMLID_537_" class="st139" d="M931.7 428.6l7.6 214.6-7.5-214.6h-.1"/><path id="XMLID_536_" class="st140" d="M931.8 428.6l7.5 214.6-7.3-214.6h-.2"/><path id="XMLID_535_" class="st141" d="M932 428.6l7.3 214.6-7.1-214.6h-.2"/><path id="XMLID_534_" class="st142" d="M932.2 428.6l7.1 214.6-7-214.6h-.1"/><path id="XMLID_533_" class="st143" d="M932.3 428.6l7 214.6-6.8-214.6h-.2"/><path id="XMLID_532_" class="st143" d="M932.5 428.6l6.8 214.6-6.6-214.6h-.2"/><path id="XMLID_531_" class="st143" d="M932.7 428.6l6.6 214.6-6.5-214.6h-.1"/><path id="XMLID_530_" class="st144" d="M932.8 428.6l6.5 214.6-6.3-214.6h-.2"/><path id="XMLID_529_" class="st145" d="M933 428.6l6.3 214.6-6.2-214.6h-.1"/><path id="XMLID_528_" class="st146" d="M933.1 428.6l6.2 214.6-6.1-214.6h-.1"/><path id="XMLID_527_" class="st146" d="M933.2 428.6l6.1 214.6-6-214.6h-.1"/><path id="XMLID_526_" class="st147" d="M933.3 428.6l6 214.6-5.9-214.6h-.1"/><path id="XMLID_525_" class="st147" d="M933.4 428.6l5.9 214.6-5.7-214.6h-.2"/><path id="XMLID_524_" class="st148" d="M933.6 428.6l5.7 214.6-5.6-214.6h-.1"/><path id="XMLID_523_" class="st149" d="M933.7 428.6l5.6 214.6-5.5-214.6h-.1"/><path id="XMLID_522_" class="st149" d="M933.8 428.6l5.5 214.6-5.4-214.6h-.1"/><path id="XMLID_521_" class="st150" d="M933.9 428.6l5.4 214.6-5.3-214.6h-.1"/><path id="XMLID_520_" class="st151" d="M934 428.6l5.3 214.6-5.2-214.7c0 .1 0 .1-.1.1"/><path id="XMLID_519_" class="st152" d="M934.1 428.6l5.2 214.7-5.1-214.7h-.1"/><path id="XMLID_518_" class="st153" d="M934.2 428.6l5.1 214.7-4.9-214.7h-.2"/><path id="XMLID_517_" class="st153" d="M934.4 428.6l4.9 214.7-4.8-214.7h-.1"/><path id="XMLID_516_" class="st154" d="M934.5 428.6l4.8 214.7-4.7-214.7c0-.1-.1 0-.1 0"/><path id="XMLID_515_" class="st154" d="M934.6 428.5l4.7 214.7-4.6-214.7h-.1"/><path id="XMLID_514_" class="st155" d="M934.7 428.5l4.6 214.7-4.5-214.7h-.1"/><path id="XMLID_513_" class="st156" d="M934.8 428.5l4.5 214.7-4.4-214.7h-.1"/><path id="XMLID_512_" class="st157" d="M934.9 428.5l4.4 214.7-4.2-214.7h-.2"/><path id="XMLID_511_" class="st157" d="M935.1 428.5l4.2 214.7-4.1-214.7h-.1"/><path id="XMLID_510_" class="st158" d="M935.2 428.5l4.1 214.7-4-214.7h-.1"/><path id="XMLID_509_" class="st159" d="M935.3 428.5l4 214.7-3.9-214.7h-.1"/><path id="XMLID_508_" class="st160" d="M935.4 428.5l3.9 214.7-3.8-214.7h-.1"/><path id="XMLID_507_" class="st161" d="M935.5 428.5l3.8 214.7-3.7-214.7h-.1"/><path id="XMLID_506_" class="st161" d="M935.6 428.5l3.7 214.7-3.6-214.7h-.1"/><path id="XMLID_505_" class="st162" d="M935.7 428.5l3.6 214.7-3.4-214.7h-.2"/><path id="XMLID_504_" class="st162" d="M935.9 428.5l3.4 214.7-3.3-214.7h-.1"/><path id="XMLID_503_" class="st163" d="M936 428.5l3.3 214.7-3.2-214.7h-.1"/><path id="XMLID_502_" class="st163" d="M936.1 428.5l3.2 214.7-3.1-214.7h-.1"/><path id="XMLID_501_" class="st163" d="M936.2 428.5l3.1 214.7-3-214.7h-.1"/><path id="XMLID_500_" class="st164" d="M936.3 428.5l3 214.7-2.9-214.7h-.1"/><path id="XMLID_499_" class="st164" d="M936.4 428.5l2.9 214.7-2.7-214.7h-.2"/><path id="XMLID_498_" class="st165" d="M936.6 428.5l2.7 214.7-2.6-214.7h-.1"/><path id="XMLID_497_" class="st166" d="M936.7 428.5l2.6 214.7-2.5-214.7h-.1"/><path id="XMLID_496_" class="st167" d="M936.8 428.5l2.5 214.7-2.4-214.7h-.1"/><path id="XMLID_495_" class="st167" d="M936.9 428.5l2.4 214.7-2.3-214.7h-.1"/><path id="XMLID_494_" class="st168" d="M937 428.5l2.3 214.7-2.2-214.7h-.1"/><path id="XMLID_493_" class="st169" d="M937.1 428.5l2.2 214.7-2.1-214.7h-.1"/><path id="XMLID_492_" class="st170" d="M937.3 428.5l2.1 214.7-1.9-214.7h-.2"/><path id="XMLID_491_" class="st171" d="M937.4 428.5l1.9 214.7-1.8-214.7h-.1"/><path id="XMLID_490_" class="st172" d="M937.5 429l1.8 214.7-1.7-214.7h-.6"/><path id="XMLID_489_" class="st173" d="M937.6 429l1.7 214.7-1.7-214.7h.4"/><path id="XMLID_488_" class="st173" d="M937.7 429l1.6 214.7-1.6-214.7h.3"/><path id="XMLID_487_" class="st174" d="M937.8 429l1.5 214.7-1.5-214.7h.2"/><path id="XMLID_486_" class="st175" d="M937.9 429l1.4 214.7-1.4-214.7h.1"/><path id="XMLID_485_" class="st175" d="M938 429l1.3 214.7L938 429"/><path id="XMLID_484_" class="st176" d="M938 428.1l1.3 214.6-1.2-214.7h-.1"/><path id="XMLID_483_" class="st176" d="M938.1 428.1l1.2 214.6-1-214.8h-.2"/><path id="XMLID_482_" class="st177" d="M938.2 428.1l1.1 214.6-1-214.8h-.3"/><path id="XMLID_481_" class="st178" d="M938.3 428.1l1 214.6-.9-214.7h-.4"/><path id="XMLID_480_" class="st178" d="M938.6 428.1l.8 214.6-.9-214.7h.5"/><path id="XMLID_479_" class="st179" d="M938.7 428.1l.7 214.6-.8-214.7h.4"/><path id="XMLID_478_" class="st179" d="M938.8 428.1l.6 214.6-.7-214.7h.3"/><path id="XMLID_477_" class="st180" d="M938.9 428.1l.5 214.6-.6-214.7h.2"/><path id="XMLID_476_" class="st181" d="M939 428.1l.4 214.6-.5-214.7h.1"/><path id="XMLID_475_" class="st182" d="M939.1 428.1l.3 214.6L939 428"/><path id="XMLID_474_" class="st183" d="M938.9 428.1l.4 214.6L939 428"/><path id="XMLID_473_" class="st183" d="M939 428.1l.3 214.6-.2-214.7h-.1"/><path id="XMLID_472_" class="st184" d="M939.1 428.1l.2 214.6V427.9h-.2"/><path id="XMLID_471_" class="st185" d="M939.1 428.1l.1 214.6.1-214.8h-.3"/><path id="XMLID_470_" class="st186" d="M939.2 428.1v214.6l.1-214.8h-.4"/><path id="XMLID_469_" class="st186" d="M939.3 428.1l-.1 214.6.2-214.8h-.5"/><path id="XMLID_468_" class="st187" d="M939.6 428.1l-.3 214.6.2-214.8h.4"/><path id="XMLID_467_" class="st188" d="M939.7 428.1l-.4 214.6.3-214.8h.3"/><path id="XMLID_466_" class="st189" d="M939.8 428.1l-.4 214.6.4-214.8h.2"/><path id="XMLID_465_" class="st189" d="M939.9 428.2l-.5 214.6.5-214.8h.1"/><path id="XMLID_464_" class="st190" d="M940 428.1l-.6 214.6.6-214.8h.1"/><path id="XMLID_463_" class="st191" d="M940.1 428.1l-.7 214.6.6-214.7"/><path id="XMLID_462_" class="st191" d="M939.9 428.1l-.7 214.6.9-214.8h-.1"/><path id="XMLID_461_" class="st192" d="M940 428.1l-.8 214.6 1-214.8h-.2"/><path id="XMLID_460_" class="st192" d="M940.1 428.1l-.9 214.6 1.1-214.8h-.3"/><path id="XMLID_459_" class="st193" d="M940.2 428.1l-.9 214.6 1.2-214.8h-.4"/><path id="XMLID_458_" class="st194" d="M940.3 428.1l-1 214.6 1.2-214.8h-.5"/><path id="XMLID_457_" class="st194" d="M940.4 428.1l-1.1 214.6 1.3-214.8h-.6"/><path id="XMLID_456_" class="st195" d="M940.7 428.1l-1.3 214.6 1.3-214.8h.3"/><path id="XMLID_455_" class="st196" d="M940.7 429l-1.4 214.7 1.4-214.7h.3"/><path id="XMLID_454_" class="st197" d="M940.8 429l-1.5 214.7 1.5-214.7h.2"/><path id="XMLID_453_" class="st197" d="M940.8 429l-1.5 214.7 1.5-214.7h.2"/><path id="XMLID_452_" class="st198" d="M940.9 429l-1.6 214.7 1.6-214.7c.1 0 .1 0 0 0"/><path id="XMLID_451_" class="st199" d="M941 429l-1.7 214.7L941 429c.1 0 0 0 0 0"/><path id="XMLID_450_" class="st199" d="M941.1 429l-1.8 214.7 1.8-214.7h-.1"/><path id="XMLID_449_" class="st200" d="M941.2 429l-1.9 214.7 1.9-214.7h-.2"/><path id="XMLID_448_" class="st200" d="M941.3 429l-2 214.7 2-214.7h-.3"/><path id="XMLID_447_" class="st200" d="M941.4 429l-2.1 214.7 2.1-214.7h-.4"/><path id="XMLID_446_" class="st200" d="M941.5 429l-2.2 214.7 2.2-214.7h-.5"/><path id="XMLID_445_" class="st200" d="M941.6 429l-2.3 214.7 2.3-214.7h.4"/><path id="XMLID_444_" class="st200" d="M941.7 429l-2.4 214.7 2.4-214.7h.3"/><path id="XMLID_443_" class="st200" d="M941.7 428.5l-2.4 214.7 2.4-214.7c.1 0 .1 0 0 0"/><path id="XMLID_442_" class="st201" d="M941.8 428.5l-2.5 214.7 2.5-214.7c.1 0 .1 0 0 0"/><path id="XMLID_441_" class="st201" d="M941.9 428.5l-2.6 214.7 2.6-214.7c.1 0 .1 0 0 0"/><path id="XMLID_440_" class="st202" d="M942 428.5l-2.7 214.7 2.7-214.7c.1 0 0 0 0 0"/><path id="XMLID_439_" class="st202" d="M942.1 428.5l-2.8 214.7 2.8-214.7c.1 0 0 0 0 0"/><path id="XMLID_438_" class="st202" d="M942.2 428.5l-2.9 214.7 2.9-214.7c.1 0 0 0 0 0"/><path id="XMLID_437_" class="st202" d="M942.3 428.5l-3 214.7 3-214.7"/><path id="XMLID_436_" class="st202" d="M942.4 428.5l-3.1 214.7 3.1-214.7"/><path id="XMLID_435_" class="st202" d="M942.5 428.5l-3.2 214.7 3.2-214.7"/><path id="XMLID_434_" class="st202" d="M942.5 428.5l-3.2 214.7 3.2-214.7c.1 0 .1 0 0 0"/><path id="XMLID_433_" class="st203" d="M942.6 428.5l-3.3 214.7 3.3-214.7c.1 0 .1 0 0 0"/><path id="XMLID_432_" class="st203" d="M942.7 428.5l-3.4 214.7 3.4-214.7c.1 0 .1 0 0 0"/><path id="XMLID_431_" class="st203" d="M942.8 428.5l-3.5 214.7 3.5-214.7c.1 0 0 0 0 0"/><path id="XMLID_430_" class="st203" d="M942.9 428.5l-3.6 214.7 3.6-214.7c.1 0 0 0 0 0"/><path id="XMLID_429_" class="st203" d="M943 428.5l-3.7 214.7 3.7-214.7"/><path id="XMLID_428_" class="st203" d="M943.1 428.5l-3.8 214.7 3.8-214.7"/><path id="XMLID_427_" class="st203" d="M943.2 428.5l-3.9 214.7 3.9-214.7"/><path id="XMLID_426_" class="st203" d="M943.2 428.5l-3.9 214.7 3.9-214.7c.1 0 .1 0 0 0"/><path id="XMLID_425_" class="st203" d="M943.3 428.5l-4 214.7 4-214.7c.1 0 .1 0 0 0"/><path id="XMLID_424_" class="st203" d="M943.4 428.5l-4.1 214.7 4.1-214.7c.1 0 0 0 0 0"/><path id="XMLID_423_" class="st203" d="M943.5 428.5l-4.2 214.7 4.2-214.7c.1 0 0 0 0 0"/><path id="XMLID_422_" class="st203" d="M943.6 428.5l-4.3 214.7 4.3-214.7c.1 0 0 0 0 0"/><path id="XMLID_421_" class="st203" d="M943.7 428.5l-4.4 214.7 4.4-214.7"/><path id="XMLID_420_" class="st203" d="M943.8 428.5l-4.5 214.7 4.5-214.7"/><path id="XMLID_419_" class="st204" d="M943.9 428.5l-4.6 214.7 4.6-214.7"/><path id="XMLID_418_" class="st205" d="M943.9 428.5l-4.6 214.7 4.6-214.7c.1 0 .1 0 0 0"/><path id="XMLID_417_" class="st205" d="M944 428.5l-4.7 214.7 4.7-214.7c.1 0 .1 0 0 0"/><path id="XMLID_416_" class="st205" d="M944.1 428.5l-4.8 214.7 4.8-214.7c.1.1 0 0 0 0"/><path id="XMLID_415_" class="st205" d="M944.2 428.6l-4.9 214.7 4.9-214.7c.1 0 0 0 0 0"/><path id="XMLID_414_" class="st205" d="M944.3 428.6l-5 214.7 5-214.7"/><path id="XMLID_413_" class="st205" d="M944.4 428.6l-5.1 214.7 5.1-214.7"/><path id="XMLID_412_" class="st205" d="M944.5 428.6l-5.2 214.7 5.2-214.7"/><path id="XMLID_411_" class="st205" d="M944.6 428.6l-5.2 214.7 5.2-214.7"/><path id="XMLID_410_" class="st205" d="M944.6 428.6l-5.3 214.7 5.3-214.7c.1 0 .1 0 0 0"/><path id="XMLID_409_" class="st205" d="M944.7 428.6l-5.4 214.6 5.4-214.6c.1 0 .1 0 0 0"/><path id="XMLID_408_" class="st205" d="M944.8 428.6l-5.5 214.6 5.5-214.6c.1 0 0 0 0 0"/><path id="XMLID_407_" class="st205" d="M944.9 428.6l-5.6 214.6 5.6-214.6c.1 0 0 0 0 0"/><path id="XMLID_406_" class="st205" d="M945 428.6l-5.7 214.6 5.7-214.6"/><path id="XMLID_405_" class="st205" d="M945.1 428.6l-5.8 214.6 5.8-214.6"/><path id="XMLID_404_" class="st205" d="M945.2 428.6l-5.9 214.6 5.9-214.6"/><path id="XMLID_403_" class="st206" d="M945.2 428.6l-5.9 214.6 5.9-214.6c.1 0 .1 0 0 0"/><path id="XMLID_402_" class="st206" d="M945.3 428.6l-6 214.6 6-214.6c.1 0 .1 0 0 0"/><path id="XMLID_401_" class="st206" d="M945.4 428.6l-6.1 214.6 6.1-214.6c.1 0 .1 0 0 0"/><path id="XMLID_400_" class="st206" d="M945.5 428.6l-6.2 214.6 6.2-214.6c.1 0 0 0 0 0"/><path id="XMLID_399_" class="st206" d="M945.6 428.6l-6.3 214.6 6.3-214.6c.1 0 0 0 0 0"/><path id="XMLID_398_" class="st206" d="M945.7 428.6l-6.4 214.6 6.4-214.6"/><path id="XMLID_397_" class="st206" d="M945.8 428.6l-6.5 214.6 6.5-214.6"/><path id="XMLID_396_" class="st206" d="M945.9 428.6l-6.6 214.6 6.6-214.6"/><path id="XMLID_395_" class="st206" d="M945.9 428.6l-6.6 214.6 6.6-214.6c.1 0 .1 0 0 0"/><path id="XMLID_394_" class="st206" d="M946 428.6l-6.7 214.6 6.7-214.6c.1 0 .1 0 0 0"/><path id="XMLID_393_" class="st206" d="M946.1 428.6l-6.8 214.6 6.8-214.6c.1 0 0 0 0 0"/><path id="XMLID_392_" class="st206" d="M946.2 428.6l-6.9 214.6 6.9-214.6c.1 0 0 0 0 0"/><path id="XMLID_391_" class="st206" d="M946.3 428.6l-7 214.6 7-214.6c.1 0 0 0 0 0"/><path id="XMLID_390_" class="st206" d="M946.4 428.6l-7.1 214.6 7.1-214.6"/><path id="XMLID_389_" class="st206" d="M946.5 428.6l-7.2 214.6 7.2-214.6"/><path id="XMLID_388_" class="st206" d="M946.6 428.6l-7.3 214.6 7.3-214.6"/><path id="XMLID_387_" class="st206" d="M946.6 428.6l-7.3 214.6 7.3-214.6c.1 0 .1 0 0 0"/><path id="XMLID_386_" class="st206" d="M946.7 428.6l-7.4 214.6 7.4-214.6c.1 0 .1 0 0 0"/><path id="XMLID_385_" class="st207" d="M946.8 428.6l-7.5 214.6 7.5-214.6c.1 0 0 0 0 0"/><path id="XMLID_384_" class="st207" d="M946.9 428.6l-7.6 214.6 7.6-214.6c.1 0 0 0 0 0"/><path id="XMLID_383_" class="st208" d="M947 428.6l-7.7 214.6 7.8-214.6h-.1"/><path id="XMLID_382_" class="st208" d="M947.1 428.6l-7.8 214.6 7.9-214.6h-.1"/><path id="XMLID_381_" class="st208" d="M947.2 428.6l-7.9 214.6 8-214.6h-.1"/><path id="XMLID_380_" class="st208" d="M947.3 428.6l-8 214.6 8.2-214.6h-.2"/><path id="XMLID_379_" class="st208" d="M947.5 428.6l-8.2 214.6 8.3-214.6c0 .1-.1.1-.1 0"/><path id="XMLID_378_" class="st208" d="M947.6 428.7l-8.3 214.6 8.4-214.6h-.1"/><path id="XMLID_377_" class="st208" d="M947.7 428.7l-8.4 214.6 8.6-214.5c-.1-.1-.1-.1-.2-.1"/><path id="XMLID_376_" class="st208" d="M947.9 428.7l-8.6 214.5 8.7-214.5h-.1"/><path id="XMLID_375_" class="st208" d="M948 428.7l-8.7 214.5 8.8-214.5h-.1"/><path id="XMLID_374_" class="st208" d="M948.1 428.7l-8.8 214.5 8.9-214.5h-.1"/><path id="XMLID_373_" class="st208" d="M948.2 428.7l-8.9 214.5 9.1-214.5h-.2"/><path id="XMLID_372_" class="st208" d="M948.4 428.7l-9.1 214.5 9.2-214.5h-.1"/><path id="XMLID_371_" class="st208" d="M948.5 428.7l-9.2 214.5 9.3-214.5h-.1"/><path id="XMLID_370_" class="st208" d="M948.6 428.7l-9.3 214.5 9.4-214.5h-.1"/><path id="XMLID_369_" class="st208" d="M948.7 428.7l-9.4 214.5 9.6-214.5h-.2"/><path id="XMLID_368_" class="st208" d="M948.9 428.7l-9.6 214.5 9.7-214.5h-.1"/><path id="XMLID_367_" class="st208" d="M949 428.7l-9.7 214.5 9.8-214.5h-.1"/><path id="XMLID_366_" class="st208" d="M949.1 428.7l-9.8 214.5 10-214.5h-.2"/><path id="XMLID_365_" class="st208" d="M949.3 428.7l-10 214.5 10.1-214.5h-.1"/><path id="XMLID_364_" class="st208" d="M949.4 428.7l-10.1 214.5 10.2-214.5h-.1"/><path id="XMLID_363_" class="st208" d="M949.5 428.7l-10.2 214.5 10.3-214.5h-.1"/><path id="XMLID_362_" class="st208" d="M949.6 428.7l-10.3 214.5 10.5-214.5h-.2"/><path id="XMLID_361_" class="st208" d="M949.8 428.7l-10.5 214.5 10.6-214.5c-.1.1-.1.1-.1 0"/><path id="XMLID_360_" class="st209" d="M949.9 428.8l-10.6 214.5L950 428.8h-.1"/><path id="XMLID_359_" class="st209" d="M950 428.8l-10.7 214.5 10.8-214.4c0-.1 0-.1-.1-.1"/><path id="XMLID_358_" class="st209" d="M950.1 428.8l-10.8 214.4 11-214.4h-.2"/><path id="XMLID_357_" class="st209" d="M950.3 428.8l-11 214.4 11.1-214.4h-.1"/><path id="XMLID_356_" class="st209" d="M950.4 428.8l-11.1 214.4 11.2-214.4h-.1"/><path id="XMLID_355_" class="st209" d="M950.5 428.8l-11.2 214.4 11.3-214.4h-.1"/><path id="XMLID_354_" class="st209" d="M950.6 428.8l-11.3 214.4 11.5-214.4h-.2"/><path id="XMLID_353_" class="st209" d="M950.8 428.8l-11.5 214.4 11.6-214.4h-.1"/><path id="XMLID_352_" class="st209" d="M950.9 428.8l-11.6 214.4L951 428.8h-.1"/><path id="XMLID_351_" class="st209" d="M951 428.8l-11.7 214.4 11.9-214.4h-.2"/><path id="XMLID_350_" class="st209" d="M951.2 428.8l-11.9 214.4 12-214.4h-.1"/><path id="XMLID_349_" class="st209" d="M951.3 428.8l-12 214.4 12.1-214.4h-.1"/><path id="XMLID_348_" class="st209" d="M951.4 428.8l-12.1 214.4 12.2-214.4h-.1"/><path id="XMLID_347_" class="st209" d="M951.5 428.8l-12.2 214.4 12.4-214.4h-.2"/><path id="XMLID_346_" class="st209" d="M951.7 428.9l-12.4 214.4L952.1 429c-.1-.1-.3-.1-.4-.1"/><path id="XMLID_345_" class="st209" d="M952.1 428.9l-12.8 214.3L953 428.9h-.9"/><path id="XMLID_344_" class="st209" d="M953.1 428.9l-13.7 214.3L954 429c-.3 0-.6 0-.9-.1"/><path id="XMLID_343_" class="st209" d="M954 429l-14.7 214.2 15.6-214.1c-.3-.1-.6-.1-.9-.1"/><path id="XMLID_342_" class="st209" d="M954.9 429.1l-15.6 214.1 16.5-214.1h-.9"/><path id="XMLID_341_" d="M955.8 429.1l-16.5 214.1 17.2-214c-.2 0-.5 0-.7-.1" fill="#f7b475"/><path id="XMLID_340_" class="st209" d="M956.5 429.2l-17.2 214 17.4-214h-.2"/><path id="XMLID_339_" class="st209" d="M956.7 429.2l-17.4 214 17.6-214h-.2"/><path id="XMLID_338_" class="st209" d="M956.9 429.2l-17.6 214 17.7-214h-.1"/><path id="XMLID_337_" class="st209" d="M957 429.2l-17.7 214 17.9-214h-.2"/><path id="XMLID_336_" class="st209" d="M957.2 429.3l-17.9 214 18.1-213.9c-.1-.1-.1-.1-.2-.1"/><path id="XMLID_335_" class="st209" d="M957.4 429.3l-18.1 213.9 18.3-213.9h-.2"/><path id="XMLID_334_" class="st209" d="M957.6 429.3l-18.3 213.9 18.4-213.9h-.1"/><path id="XMLID_333_" class="st209" d="M957.7 429.3l-18.4 213.9 18.6-213.9h-.2"/><path id="XMLID_332_" class="st209" d="M957.9 429.3l-18.6 213.9 18.8-213.9h-.2"/><path id="XMLID_331_" class="st209" d="M958.1 429.3l-18.8 213.9 19-213.9h-.2"/><path id="XMLID_330_" class="st209" d="M958.3 429.3l-19 213.9 19.1-213.8s-.1 0-.1-.1"/><path id="XMLID_329_" class="st209" d="M958.4 429.4l-19.1 213.8 19.3-213.8h-.2"/><path id="XMLID_328_" class="st209" d="M958.6 429.4l-19.3 213.8 19.5-213.8h-.2"/><path id="XMLID_327_" class="st209" d="M958.8 429.4l-19.5 213.8L959 429.4h-.2"/><path id="XMLID_326_" class="st209" d="M959 429.4l-19.7 213.8 19.8-213.8h-.1"/><path id="XMLID_325_" class="st209" d="M959.1 429.4l-19.8 213.8 20-213.8h-.2"/><path id="XMLID_324_" class="st209" d="M959.3 429.4l-20 213.8 20.2-213.7c-.1 0-.1 0-.2-.1"/><path id="XMLID_323_" class="st209" d="M959.5 429.5l-20.2 213.7 20.4-213.7h-.2"/><path id="XMLID_322_" class="st209" d="M959.7 429.5l-20.4 213.7 20.5-213.7h-.1"/><path id="XMLID_321_" class="st208" d="M959.8 429.5l-20.5 213.7L960 429.5h-.2"/><path id="XMLID_320_" class="st208" d="M960 429.5l-20.7 213.7 20.9-213.7h-.2"/><path id="XMLID_319_" class="st208" d="M960.2 429.5l-20.9 213.7 21.1-213.7h-.2"/><path id="XMLID_318_" class="st208" d="M960.4 429.6l-21.1 213.7 21.2-213.6c0-.1-.1-.1-.1-.1"/><path id="XMLID_317_" class="st208" d="M960.5 429.6l-21.2 213.6 21.4-213.6h-.2"/><path id="XMLID_316_" class="st208" d="M960.7 429.6l-21.4 213.6 21.6-213.6h-.2"/><path id="XMLID_315_" class="st208" d="M960.9 429.6l-21.6 213.6L961 429.6h-.1"/><path id="XMLID_314_" class="st208" d="M961 429.6l-21.7 213.6 21.8-213.6h-.1"/><path id="XMLID_313_" class="st208" d="M961.1 429.6l-21.8 213.6 22-213.6h-.2"/><path id="XMLID_312_" class="st208" d="M961.3 429.6l-22 213.6 22.1-213.6c-.1.1-.1.1-.1 0"/><path id="XMLID_311_" class="st208" d="M961.4 429.7l-22.1 213.6 22.2-213.5-.1-.1"/><path id="XMLID_310_" class="st208" d="M961.5 429.7l-22.2 213.5 22.3-213.5h-.1"/><path id="XMLID_309_" class="st208" d="M961.6 429.7l-22.3 213.5 22.4-213.5h-.1"/><path id="XMLID_308_" class="st208" d="M961.7 429.7l-22.4 213.5 22.5-213.5h-.1"/><path id="XMLID_307_" class="st208" d="M961.8 429.7l-22.5 213.5 22.6-213.5h-.1"/><path id="XMLID_306_" class="st208" d="M961.9 429.7l-22.6 213.5L962 429.7h-.1"/><path id="XMLID_305_" class="st208" d="M962 429.7l-22.7 213.5 22.8-213.5h-.1"/><path id="XMLID_304_" class="st208" d="M962.1 429.7l-22.8 213.5 23-213.5c-.1.1-.1.1-.2 0"/><path id="XMLID_303_" class="st208" d="M962.3 429.8l-23 213.5 23.1-213.4-.1-.1"/><path id="XMLID_302_" class="st208" d="M962.4 429.8l-23.1 213.4 23.2-213.4h-.1"/><path id="XMLID_301_" class="st208" d="M962.5 429.8l-23.2 213.4 23.3-213.4h-.1"/><path id="XMLID_300_" class="st208" d="M962.6 429.8l-23.3 213.4 23.4-213.4h-.1"/><path id="XMLID_299_" class="st208" d="M962.7 429.8l-23.4 213.4 23.5-213.4h-.1"/><path id="XMLID_298_" class="st207" d="M962.8 429.8l-23.5 213.4 23.6-213.4h-.1"/><path id="XMLID_297_" class="st207" d="M962.9 429.8l-23.6 213.4L963 429.9c0-.1 0-.1-.1-.1"/><path id="XMLID_296_" class="st206" d="M963 429.9l-23.7 213.4L963.1 430c0-.1 0-.1-.1-.1"/><path id="XMLID_295_" class="st206" d="M963.1 429.9l-23.8 213.3 24-213.3h-.2"/><path id="XMLID_294_" class="st206" d="M963.3 429.9l-24 213.3 24.1-213.3h-.1"/><path id="XMLID_293_" class="st206" d="M963.4 429.9l-24.1 213.3 24.2-213.3h-.1"/><path id="XMLID_292_" class="st206" d="M963.5 429.9l-24.2 213.3 24.3-213.3h-.1"/><path id="XMLID_291_" class="st206" d="M963.6 429.9l-24.3 213.3 24.4-213.3h-.1"/><path id="XMLID_290_" class="st206" d="M963.7 429.9l-24.4 213.3 24.5-213.3h-.1"/><path id="XMLID_289_" class="st206" d="M963.8 429.9l-24.5 213.3L963.9 430l-.1-.1"/><path id="XMLID_288_" class="st206" d="M963.9 430l-24.6 213.3L964 430h-.1"/><path id="XMLID_287_" class="st206" d="M964 430l-24.7 213.2L964.1 430h-.1"/><path id="XMLID_286_" class="st206" d="M964.1 430l-24.8 213.2L964.2 430h-.1"/><path id="XMLID_285_" class="st206" d="M964.2 430l-24.9 213.2L964.4 430h-.2"/><path id="XMLID_284_" class="st206" d="M964.4 430l-25.1 213.2L964.5 430h-.1"/><path id="XMLID_283_" class="st206" d="M964.5 430l-25.2 213.2L964.6 430h-.1"/><path id="XMLID_282_" class="st206" d="M964.6 430l-25.3 213.2L964.7 430c-.1.1-.1 0-.1 0"/><path id="XMLID_281_" class="st206" d="M964.7 430.1l-25.4 213.2 25.5-213.1c0-.1-.1-.1-.1-.1"/><path id="XMLID_280_" class="st206" d="M964.8 430.1l-25.5 213.1 25.6-213.1h-.1"/><path id="XMLID_279_" class="st206" d="M964.9 430.1l-25.6 213.1L965 430.1h-.1"/><path id="XMLID_278_" class="st205" d="M965 430.1l-25.7 213.1 25.8-213.1h-.1"/><path id="XMLID_277_" class="st205" d="M965.1 430.1l-25.8 213.1 25.9-213.1h-.1"/><path id="XMLID_276_" class="st205" d="M965.2 430.1l-25.9 213.1 26-213.1h-.1"/><path id="XMLID_275_" class="st205" d="M965.3 430.1l-26 213.1 26.1-213.1c0 .1 0 0-.1 0"/><path id="XMLID_274_" class="st205" d="M965.5 430.2l-26.1 213.1 26.3-213c-.1-.1-.1-.1-.2-.1"/><path id="XMLID_273_" class="st205" d="M965.6 430.2l-26.3 213 26.4-213h-.1"/><path id="XMLID_272_" class="st205" d="M965.7 430.2l-26.4 213 26.5-213h-.1"/><path id="XMLID_271_" class="st205" d="M965.8 430.2l-26.5 213 26.6-213h-.1"/><path id="XMLID_270_" class="st205" d="M965.9 430.2l-26.6 213 26.7-213h-.1"/><path id="XMLID_269_" class="st205" d="M966 430.2l-26.7 213 26.9-213h-.2"/><path id="XMLID_268_" class="st205" d="M966.2 430.3l-26.9 213 27-212.9-.1-.1"/><path id="XMLID_267_" class="st205" d="M966.3 430.3l-27 212.9 27.1-212.9h-.1"/><path id="XMLID_266_" class="st205" d="M966.4 430.3l-27.1 212.9 27.2-212.9h-.1"/><path id="XMLID_265_" class="st205" d="M966.5 430.3l-27.2 212.9 27.3-212.9h-.1"/><path id="XMLID_264_" class="st205" d="M966.6 430.3l-27.3 212.9 27.5-212.9h-.2"/><path id="XMLID_263_" class="st204" d="M966.8 430.3l-27.5 212.9 27.6-212.9c-.1.1-.1 0-.1 0"/><path id="XMLID_262_" class="st203" d="M966.9 430.4l-27.6 212.9L967 430.4h-.1"/><path id="XMLID_261_" class="st203" d="M967 430.4l-27.7 212.8 27.8-212.8h-.1"/><path id="XMLID_260_" class="st203" d="M967.1 430.4l-27.8 212.8 27.9-212.8h-.1"/><path id="XMLID_259_" class="st203" d="M967.2 430.4l-27.9 212.8 28.1-212.8h-.2"/><path id="XMLID_258_" class="st203" d="M967.4 430.4l-28.1 212.8 28.2-212.8h-.1"/><path id="XMLID_257_" class="st203" d="M967.5 430.4l-28.2 212.8 28.3-212.8c0 .1-.1 0-.1 0"/><path id="XMLID_256_" class="st203" d="M967.6 430.5l-28.3 212.8 28.4-212.7c0-.1-.1-.1-.1-.1"/><path id="XMLID_255_" class="st203" d="M967.7 430.5l-28.4 212.7 28.5-212.7h-.1"/><path id="XMLID_254_" class="st203" d="M967.8 430.5l-28.5 212.7L968 430.5h-.2"/><path id="XMLID_253_" class="st203" d="M968 430.5l-28.7 212.7 28.8-212.7h-.1"/><path id="XMLID_252_" class="st203" d="M968.1 430.5l-28.8 212.7 28.9-212.7h-.1"/><path id="XMLID_251_" class="st203" d="M968.2 430.5l-28.9 212.7 29-212.6s-.1 0-.1-.1"/><path id="XMLID_250_" class="st203" d="M968.3 430.6l-29 212.6 29.1-212.6h-.1"/><path id="XMLID_249_" class="st203" d="M968.4 430.6l-29.1 212.6 29.2-212.6h-.1"/><path id="XMLID_248_" class="st202" d="M968.5 430.6l-29.2 212.6 29.4-212.6h-.2"/><path id="XMLID_247_" class="st202" d="M968.7 430.6l-29.4 212.6 29.5-212.6h-.1"/><path id="XMLID_246_" class="st202" d="M968.8 430.6l-29.5 212.6 29.6-212.6h-.1"/><path id="XMLID_245_" class="st202" d="M968.9 430.7l-29.6 212.6L969 430.7h-.1"/><path id="XMLID_244_" class="st202" d="M969 430.7l-29.7 212.5 29.8-212.5h-.1"/><path id="XMLID_243_" class="st202" d="M969.1 430.7l-29.8 212.5 29.9-212.5h-.1"/><path id="XMLID_242_" class="st202" d="M969.2 430.7l-29.9 212.5 30.1-212.5h-.2"/><path id="XMLID_241_" class="st201" d="M969.4 430.7l-30.1 212.5 30.2-212.5h-.1"/><path id="XMLID_240_" class="st201" d="M969.5 430.7l-30.2 212.5 30.3-212.4c-.1 0-.1 0-.1-.1"/><path id="XMLID_239_" class="st200" d="M969.6 430.8l-30.3 212.4 30.4-212.4h-.1"/><path id="XMLID_238_" class="st200" d="M969.7 430.8l-30.4 212.4 30.5-212.4h-.1"/><path id="XMLID_237_" class="st200" d="M969.8 430.8l-30.5 212.4 30.6-212.4h-.1"/><path id="XMLID_236_" class="st200" d="M969.9 430.8l-30.6 212.4 30.8-212.4h-.2"/><path id="XMLID_235_" class="st200" d="M970.1 430.9l-30.8 212.4 31-212.3c-.1-.1-.1-.1-.2-.1"/><path id="XMLID_234_" class="st200" d="M970.3 430.9l-31 212.3 31.2-212.3h-.2"/><path id="XMLID_233_" class="st200" d="M970.5 430.9l-31.2 212.3 31.3-212.3h-.1"/><path id="XMLID_232_" class="st199" d="M970.6 430.9l-31.3 212.3L970.8 431c-.1 0-.1-.1-.2-.1"/><path id="XMLID_231_" class="st199" d="M970.8 431l-31.5 212.2L971 431h-.2"/><path id="XMLID_230_" class="st198" d="M971 431l-31.7 212.2L971.1 431h-.1"/><path id="XMLID_229_" class="st197" d="M971.1 431l-31.8 212.2 32-212.2h-.2"/><path id="XMLID_228_" class="st197" d="M971.3 431.1l-32 212.2 32.2-212.1c-.1-.1-.1-.1-.2-.1"/><path id="XMLID_227_" class="st196" d="M971.5 431.1l-32.2 212.1 32.3-212.1h-.1"/><path id="XMLID_226_" class="st195" d="M971.6 431.1l-32.3 212.1 32.5-212.1h-.2"/><path id="XMLID_225_" class="st194" d="M971.8 431.1l-32.5 212.1 32.7-212c-.1 0-.1 0-.2-.1"/><path id="XMLID_224_" class="st194" d="M972 431.2l-32.7 212 32.8-212h-.1"/><path id="XMLID_223_" class="st193" d="M972.1 431.2l-32.8 212 33-212h-.2"/><path id="XMLID_222_" class="st192" d="M972.3 431.2l-33 212 33.2-212c-.1.1-.1 0-.2 0"/><path id="XMLID_221_" class="st192" d="M972.5 431.3l-33.2 212 33.3-211.9c0-.1-.1-.1-.1-.1"/><path id="XMLID_220_" class="st191" d="M972.6 431.3l-33.3 211.9 33.5-211.9h-.2"/><path id="XMLID_219_" class="st191" d="M972.8 431.3l-33.5 211.9L973 431.4c-.1-.1-.1-.1-.2-.1"/><path id="XMLID_218_" class="st190" d="M973 431.4l-33.7 211.9 33.8-211.8c0-.1-.1-.1-.1-.1"/><path id="XMLID_217_" class="st189" d="M973.1 431.4l-33.8 211.8 34-211.8h-.2"/><path id="XMLID_216_" class="st189" d="M973.3 431.4l-34 211.8 34.1-211.8h-.1"/><path id="XMLID_215_" class="st188" d="M973.4 431.4l-34.1 211.8 34.3-211.7s-.1 0-.2-.1"/><path id="XMLID_214_" class="st187" d="M973.6 431.5l-34.3 211.7 34.5-211.7h-.2"/><path id="XMLID_213_" class="st186" d="M973.8 431.5l-34.5 211.7 34.6-211.7h-.1"/><path id="XMLID_212_" class="st186" d="M973.9 431.5l-34.6 211.7 34.9-211.6c-.1 0-.2 0-.3-.1"/><path id="XMLID_211_" class="st185" d="M974.2 431.6l-34.9 211.6 35.1-211.6h-.2"/><path id="XMLID_210_" class="st184" d="M974.4 431.6l-35.1 211.6 35.4-211.5c-.1 0-.2 0-.3-.1"/><path id="XMLID_209_" class="st183" d="M974.7 431.7l-35.4 211.5L975 431.7h-.3"/><path id="XMLID_208_" class="st183" d="M975 431.7l-35.7 211.5 35.9-211.4c-.1 0-.2 0-.2-.1"/><path id="XMLID_207_" class="st182" d="M975.2 431.8l-35.9 211.4 36.2-211.4h-.3"/><path id="XMLID_206_" class="st181" d="M975.5 431.9l-36.2 211.4L975.7 432c0-.1-.1-.1-.2-.1"/><path id="XMLID_205_" class="st180" d="M975.7 431.9l-36.4 211.3L976 432c-.1-.1-.2-.1-.3-.1"/><path id="XMLID_204_" class="st179" d="M976 432l-36.7 211.3 37-211.2c-.1-.1-.2-.1-.3-.1"/><path id="XMLID_203_" class="st179" d="M976.3 432l-37 211.2 37.2-211.1c-.1 0-.1-.1-.2-.1"/><path id="XMLID_202_" class="st178" d="M976.5 432.1l-37.2 211.1 37.5-211.1h-.3"/><path id="XMLID_201_" class="st178" d="M976.8 432.1l-37.5 211.1 37.7-211c-.1 0-.1-.1-.2-.1"/><path id="XMLID_200_" class="st177" d="M977 432.2l-37.7 211 38-211h-.3"/><path id="XMLID_199_" class="st176" d="M977.3 432.2l-38 211 38.2-210.9s-.1 0-.2-.1"/><path id="XMLID_198_" class="st176" d="M977.5 432.3l-38.2 210.9 38.5-210.9h-.3"/><path id="XMLID_197_" class="st175" d="M977.8 432.4l-38.5 210.9 38.8-210.8c-.1-.1-.2-.1-.3-.1"/><path id="XMLID_196_" class="st175" d="M978.1 432.4l-38.8 210.8 39.2-210.7c-.2 0-.3 0-.4-.1"/><path id="XMLID_195_" class="st174" d="M978.5 432.5l-39.2 210.7 39.5-210.6c-.1 0-.2-.1-.3-.1"/><path id="XMLID_194_" class="st173" d="M978.8 432.6l-39.5 210.6 39.8-210.5c-.1-.1-.2-.1-.3-.1"/><path id="XMLID_193_" class="st173" d="M979.1 432.7l-39.8 210.5 40.1-210.5h-.3"/><path id="XMLID_192_" class="st172" d="M979.4 432.8l-40.1 210.5 40.5-210.4c-.1-.1-.2-.1-.4-.1"/><path id="XMLID_191_" class="st171" d="M979.8 432.8l-40.5 210.4 40.8-210.3c-.1 0-.2 0-.3-.1"/><path id="XMLID_190_" class="st170" d="M980.1 432.9l-40.8 210.3L980.4 433c-.1 0-.2-.1-.3-.1"/><path id="XMLID_189_" class="st169" d="M980.4 433l-41.1 210.2 41.4-210.1c-.1 0-.2-.1-.3-.1"/><path id="XMLID_188_" class="st168" d="M980.7 433.1l-41.4 210.1 41.8-210c-.2-.1-.3-.1-.4-.1"/><path id="XMLID_187_" class="st167" d="M981.1 433.2l-41.8 210 42.1-210h-.3"/><path id="XMLID_186_" class="st167" d="M981.4 433.3l-42.1 210 42.4-209.9c-.1-.1-.2-.1-.3-.1"/><path id="XMLID_185_" class="st166" d="M981.7 433.3l-42.4 209.9L982 433.4c-.1 0-.2 0-.3-.1"/><path id="XMLID_184_" class="st165" d="M982 433.4l-42.7 209.8 43-209.7c-.1 0-.2 0-.3-.1"/><path id="XMLID_183_" class="st164" d="M982.3 433.5l-43 209.7 43.3-209.6c-.1 0-.2-.1-.3-.1"/><path id="XMLID_182_" class="st164" d="M982.6 433.6l-43.3 209.6 43.6-209.5c-.1 0-.2-.1-.3-.1"/><path id="XMLID_181_" class="st163" d="M982.9 433.7l-43.6 209.5 43.9-209.4c-.1-.1-.2-.1-.3-.1"/><path id="XMLID_180_" class="st163" d="M983.2 433.8l-43.9 209.4 44.2-209.4h-.3"/><path id="XMLID_179_" class="st163" d="M983.5 433.9l-44.2 209.4L983.8 434c-.1-.1-.2-.1-.3-.1"/><path id="XMLID_178_" class="st162" d="M983.8 433.9l-44.5 209.3L984.1 434c-.1 0-.2 0-.3-.1"/><path id="XMLID_177_" class="st162" d="M984.1 434l-44.7 209.2 45-209.1c-.2 0-.3 0-.3-.1"/><path id="XMLID_176_" class="st161" d="M984.3 434.1l-45 209.1 45.3-209c-.1 0-.2 0-.3-.1"/><path id="XMLID_175_" class="st161" d="M984.6 434.2l-45.3 209 45.6-208.9c-.1 0-.2-.1-.3-.1"/><path id="XMLID_174_" class="st160" d="M984.9 434.3l-45.6 208.9 45.8-208.8c-.1-.1-.2-.1-.2-.1"/><path id="XMLID_173_" class="st159" d="M985.1 434.4l-45.8 208.8 46-208.8h-.2"/><path id="XMLID_172_" class="st158" d="M985.4 434.4l-46 208.8 46.3-208.7c-.2 0-.3 0-.3-.1"/><path id="XMLID_171_" class="st157" d="M985.6 434.5l-46.3 208.7 46.5-208.6s-.1 0-.2-.1"/><path id="XMLID_170_" class="st157" d="M985.8 434.6l-46.5 208.6 46.8-208.5c-.1 0-.2-.1-.3-.1"/><path id="XMLID_169_" class="st156" d="M986.1 434.7l-46.8 208.5 47-208.4c-.1-.1-.2-.1-.2-.1"/><path id="XMLID_168_" class="st155" d="M986.3 434.8l-47 208.4 47.2-208.4h-.2"/><path id="XMLID_167_" class="st154" d="M986.5 434.9l-47.2 208.4L986.8 435c-.1-.1-.2-.1-.3-.1"/><path id="XMLID_166_" class="st154" d="M986.8 434.9l-47.5 208.3L987 435c-.1 0-.2 0-.2-.1"/><path id="XMLID_165_" class="st153" d="M987 435l-47.7 208.2 47.9-208.1c-.1 0-.1-.1-.2-.1"/><path id="XMLID_164_" class="st153" d="M987.2 435.1l-47.9 208.1 48.1-208s-.1-.1-.2-.1"/><path id="XMLID_163_" class="st152" d="M987.5 435.2l-48.1 208 48.4-207.9c-.2-.1-.3-.1-.3-.1"/><path id="XMLID_162_" class="st151" d="M987.7 435.3l-48.4 207.9 48.6-207.9h-.2"/><path id="XMLID_161_" class="st150" d="M987.9 435.3l-48.6 207.9L988 435.4s-.1 0-.1-.1"/><path id="XMLID_160_" class="st149" d="M988 435.4l-48.7 207.8 48.9-207.7s-.1-.1-.2-.1"/><path id="XMLID_159_" class="st149" d="M988.2 435.5l-48.9 207.7 49.1-207.6c0-.1-.1-.1-.2-.1"/><path id="XMLID_158_" class="st148" d="M988.4 435.6l-49.1 207.6 49.3-207.6h-.2"/><path id="XMLID_157_" class="st147" d="M988.6 435.6l-49.3 207.6 49.5-207.5c-.1 0-.1 0-.2-.1"/><path id="XMLID_156_" class="st147" d="M988.8 435.7l-49.5 207.5L989 435.8c-.1 0-.1-.1-.2-.1"/><path id="XMLID_155_" class="st146" d="M989 435.8l-49.7 207.4 49.9-207.3c-.1-.1-.1-.1-.2-.1"/><path id="XMLID_154_" class="st146" d="M989.2 435.9l-49.9 207.3 50.1-207.3h-.2"/><path id="XMLID_153_" class="st145" d="M989.4 435.9l-50.1 207.3L989.6 436c-.1 0-.2 0-.2-.1"/><path id="XMLID_152_" class="st144" d="M989.6 436l-50.2 207.2 50.4-207.1c-.1 0-.2-.1-.2-.1"/><path id="XMLID_151_" class="st143" d="M989.7 436.1l-50.4 207.1 50.6-207c0-.1-.1-.1-.2-.1"/><path id="XMLID_150_" class="st143" d="M989.9 436.2l-50.6 207 50.8-207h-.2"/><path id="XMLID_149_" class="st143" d="M990.1 436.3l-50.8 207 51-206.9c-.1-.1-.2-.1-.2-.1"/><path id="XMLID_148_" class="st142" d="M990.3 436.3l-51 206.9 51.1-206.8s-.1 0-.1-.1"/><path id="XMLID_147_" class="st141" d="M990.4 436.4l-51.1 206.8 51.3-206.7c-.1-.1-.1-.1-.2-.1"/><path id="XMLID_146_" class="st140" d="M990.6 436.5l-51.3 206.7 51.4-206.7h-.1"/><path id="XMLID_145_" class="st139" d="M990.7 436.5l-51.4 206.7 51.6-206.6c-.1 0-.1 0-.2-.1"/><path id="XMLID_144_" class="st138" d="M990.9 436.6l-51.6 206.6L991 436.7l-.1-.1"/><path id="XMLID_143_" class="st138" d="M991 436.7l-51.7 206.5 51.9-206.5h-.2"/><path id="XMLID_142_" class="st137" d="M991.2 436.8l-51.9 206.5 52-206.4c0-.1-.1-.1-.1-.1"/><path id="XMLID_141_" class="st136" d="M991.3 436.8l-52 206.4 52.2-206.3c-.1 0-.1 0-.2-.1"/><path id="XMLID_140_" class="st136" d="M991.5 436.9l-52.2 206.3L991.6 437l-.1-.1"/><path id="XMLID_139_" class="st135" d="M991.6 437l-52.3 206.2L991.8 437h-.2"/><path id="XMLID_138_" class="st134" d="M991.8 437l-52.5 206.2 52.6-206.1s-.1 0-.1-.1"/><path id="XMLID_137_" class="st133" d="M991.9 437.1l-52.6 206.1 52.8-206c-.1 0-.1-.1-.2-.1"/><path id="XMLID_136_" class="st132" d="M992.1 437.2l-52.8 206 52.9-205.9c0-.1-.1-.1-.1-.1"/><path id="XMLID_135_" class="st131" d="M992.2 437.3l-52.9 205.9 53.1-205.9h-.2"/><path id="XMLID_134_" class="st131" d="M992.4 437.3l-53.1 205.9 53.2-205.8s-.1 0-.1-.1"/><path id="XMLID_133_" class="st131" d="M992.5 437.4l-53.2 205.8 53.3-205.7-.1-.1"/><path id="XMLID_132_" class="st130" d="M992.6 437.5l-53.3 205.7 53.5-205.7h-.2"/><path id="XMLID_131_" class="st129" d="M992.8 437.6l-53.5 205.7 53.6-205.6-.1-.1"/><path id="XMLID_130_" class="st128" d="M992.9 437.6l-53.6 205.6L993 437.7l-.1-.1"/><path id="XMLID_129_" class="st127" d="M993 437.7l-53.7 205.5 53.8-205.4c0-.1 0-.1-.1-.1"/><path id="XMLID_128_" class="st126" d="M993.1 437.8l-53.8 205.4 54-205.4h-.2"/><path id="XMLID_127_" class="st126" d="M993.3 437.8l-54 205.4 54.1-205.3c-.1 0-.1 0-.1-.1"/><path id="XMLID_126_" class="st125" d="M993.4 437.9l-54.1 205.3L993.5 438l-.1-.1"/><path id="XMLID_125_" class="st124" d="M993.5 438l-54.2 205.2L993.6 438h-.1"/><path id="XMLID_124_" class="st124" d="M993.6 438l-54.3 205.2 54.4-205.1-.1-.1"/><path id="XMLID_123_" class="st123" d="M993.7 438.1l-54.4 205.1 54.6-205c-.1 0-.1-.1-.2-.1"/><path id="XMLID_122_" class="st122" d="M993.9 438.2l-54.6 205 54.7-205h-.1"/><path id="XMLID_121_" class="st121" d="M994 438.3l-54.7 205 54.8-204.9c0-.1-.1-.1-.1-.1"/><path id="XMLID_120_" class="st121" d="M994.1 438.3l-54.8 204.9 54.9-204.8s-.1 0-.1-.1"/><path id="XMLID_119_" class="st120" d="M994.2 438.4l-54.9 204.8 55-204.7c0-.1 0-.1-.1-.1"/><path id="XMLID_118_" class="st119" d="M994.3 438.5l-55 204.7 55.1-204.7h-.1"/><path id="XMLID_117_" class="st119" d="M994.4 438.5l-55.1 204.7 55.2-204.6-.1-.1"/><path id="XMLID_116_" class="st118" d="M994.5 438.6l-55.2 204.6 55.4-204.5c-.1 0-.1-.1-.2-.1"/><path id="XMLID_115_" class="st118" d="M994.7 438.7l-55.4 204.5 55.5-204.5h-.1"/><path id="XMLID_114_" class="st117" d="M994.8 438.8l-55.5 204.5 55.6-204.4-.1-.1"/><path id="XMLID_113_" class="st117" d="M994.9 438.8l-55.6 204.4L995 438.9c-.1 0-.1-.1-.1-.1"/><path id="XMLID_112_" class="st116" d="M995 438.9l-55.7 204.3L995.1 439l-.1-.1"/><path id="XMLID_111_" class="st115" d="M995.1 439l-55.8 204.3L995.1 439"/><path id="XMLID_110_" class="st114" d="M995.2 439l-55.9 204.2L995.2 439c0 .1 0 .1 0 0"/><path id="XMLID_109_" class="st113" d="M995.3 439.1l-56 204.1 56-204.1"/><path id="XMLID_108_" class="st113" d="M995.4 439.2l-56.1 204 56.1-204"/><path id="XMLID_107_" class="st112" d="M995.5 439.2l-56.2 204 56.2-204c0 .1 0 .1 0 0"/><path id="XMLID_106_" class="st111" d="M995.5 439.3l-56.2 203.9 56.2-203.9c.1.1.1 0 0 0"/><path id="XMLID_105_" class="st110" d="M995.6 439.4l-56.3 203.8 56.3-203.8c.1 0 .1 0 0 0"/><path id="XMLID_104_" class="st109" d="M995.7 439.4l-56.4 203.8 56.4-203.8c.1.1.1.1 0 0"/><path id="XMLID_103_" class="st109" d="M995.8 439.5l-56.5 203.7 56.5-203.7c.1.1.1 0 0 0"/><path id="XMLID_102_" class="st108" d="M995.9 439.6l-56.6 203.6 56.6-203.6c.1 0 0 0 0 0"/><path id="XMLID_101_" class="st108" d="M996 439.7l-56.7 203.6L996 439.7c.1 0 0 0 0 0"/><path id="XMLID_100_" class="st107" d="M996.1 439.7l-56.8 203.5 56.8-203.5c.1.1 0 .1 0 0"/><path id="XMLID_99_" class="st106" d="M996.2 439.8l-56.9 203.4 56.9-203.4"/><path id="XMLID_98_" class="st105" d="M996.3 439.9l-57 203.3 57-203.3"/><path id="XMLID_97_" class="st105" d="M996.3 439.9l-57 203.3 57-203.3c.1.1.1.1 0 0"/><path id="XMLID_96_" class="st104" d="M996.4 440l-57.1 203.2L996.4 440c.1.1.1 0 0 0"/><path id="XMLID_95_" class="st103" d="M996.5 440.1l-57.2 203.1 57.2-203.1c.1 0 0 0 0 0"/><path id="XMLID_94_" class="st103" d="M996.6 440.1l-57.3 203.1 57.3-203.1c0 .1 0 .1 0 0"/><path id="XMLID_93_" class="st102" d="M996.7 440.2l-57.4 203 57.4-203c0 .1 0 0 0 0"/><path id="XMLID_92_" class="st102" d="M996.7 440.3l-57.4 202.9 57.4-202.9c.1 0 .1 0 0 0"/><path id="XMLID_91_" class="st101" d="M996.8 440.4l-57.5 202.9 57.5-202.9c.1 0 0 0 0 0"/><path id="XMLID_90_" class="st101" d="M996.9 440.4l-57.6 202.8 57.6-202.8c0 .1 0 0 0 0"/><path id="XMLID_89_" class="st100" d="M997 440.5l-57.7 202.7L997 440.5"/><path id="XMLID_88_" class="st99" d="M997 440.6l-57.7 202.6L997 440.6c.1 0 .1 0 0 0"/><path id="XMLID_87_" class="st99" d="M997.1 440.6l-57.8 202.6 57.8-202.6c.1.1 0 .1 0 0"/><path id="XMLID_86_" class="st98" d="M997.2 440.7l-57.9 202.5 57.9-202.5c0 .1 0 0 0 0"/><path id="XMLID_85_" class="st98" d="M997.3 440.8l-58 202.4 58-202.4"/><path id="XMLID_84_" class="st97" d="M997.3 440.8l-58 202.4 58-202.4c.1.1 0 .1 0 0"/><path id="XMLID_83_" class="st96" d="M997.4 440.9l-58.1 202.3 58.1-202.3c0 .1 0 0 0 0"/><path id="XMLID_82_" class="st96" d="M997.5 441l-58.2 202.2L997.5 441"/><path id="XMLID_81_" class="st95" d="M997.5 441.1l-58.2 202.2 58.2-202.2c.1 0 0 0 0 0"/><path id="XMLID_80_" class="st94" d="M997.6 441.1l-58.3 202.1 58.3-202.1c0 .1 0 0 0 0"/><path id="XMLID_79_" class="st93" d="M997.7 441.2l-58.3 202 58.3-202"/><path id="XMLID_78_" class="st93" d="M997.7 441.3l-58.4 201.9 58.4-201.9c.1 0 0 0 0 0"/><path id="XMLID_77_" class="st92" d="M997.8 441.3l-58.5 201.9 58.5-201.9c0 .1 0 .1 0 0"/><path id="XMLID_76_" class="st91" d="M997.8 441.4l-58.5 201.8 58.5-201.8c.1.1.1 0 0 0"/><path id="XMLID_75_" class="st91" d="M997.9 441.5l-58.6 201.7 58.6-201.7"/><path id="XMLID_74_" class="st90" d="M997.9 441.5l-58.6 201.7 58.6-201.7c.1.1.1.1 0 0"/><path id="XMLID_73_" class="st89" d="M998 441.6l-58.7 201.6L998 441.6c0 .1 0 0 0 0"/><path id="XMLID_72_" class="st88" d="M998.1 441.7l-58.8 201.5 58.8-201.5"/><path id="XMLID_71_" class="st88" d="M998.1 441.8l-58.8 201.5 58.8-201.5"/><path id="XMLID_70_" class="st87" d="M998.2 441.8l-58.9 201.4 58.9-201.4c0 .1 0 .1 0 0"/><path id="XMLID_69_" class="st87" d="M998.2 441.9l-58.9 201.3 58.9-201.3c.1 0 0 0 0 0"/><path id="XMLID_68_" class="st86" d="M998.3 442l-59 201.2 59-201.2"/><path id="XMLID_67_" class="st85" d="M998.3 442l-59 201.2 59-201.2c0 .1 0 .1 0 0"/><path id="XMLID_66_" class="st85" d="M998.4 442.1l-59.1 201.1 59.1-201.1c0 .1 0 0 0 0"/><path id="XMLID_65_" class="st84" d="M998.4 442.2l-59.1 201 59.1-201"/><path id="XMLID_64_" class="st84" d="M998.5 442.3l-59.2 201 59.2-201"/><path id="XMLID_63_" class="st1" d="M998.5 442.3l-59.2 200.9 59.2-200.9c0 .1 0 .1 0 0"/><path id="XMLID_62_" class="st1" d="M998.5 442.4l-59.2 200.8 59.2-200.8c.1 0 .1 0 0 0"/><path id="XMLID_61_" class="st1" d="M998.6 442.5l-59.3 200.7 59.3-200.7"/><path id="XMLID_60_" class="st81" d="M998.6 442.5l-59.3 200.7 59.3-200.7c.1.1 0 .1 0 0"/><path id="XMLID_59_" class="st81" d="M998.7 442.6l-59.4 200.6 59.4-200.6c0 .1 0 0 0 0"/><path id="XMLID_58_" class="st80" d="M998.7 442.7l-59.4 200.5 59.4-200.5"/><path id="XMLID_57_" class="st79" d="M998.8 442.8l-59.5 200.5 59.5-200.5"/><path id="XMLID_56_" class="st78" d="M998.8 442.8l-59.5 200.4 59.5-200.4c0 .1 0 .1 0 0"/><path id="XMLID_55_" class="st78" d="M998.8 442.9l-59.5 200.3 59.5-200.3c.1.1 0 0 0 0"/><path id="XMLID_54_" class="st77" d="M998.9 443l-59.6 200.2L998.9 443"/><path id="XMLID_53_" class="st76" d="M998.9 443.1l-59.6 200.2 59.6-200.2"/><path id="XMLID_52_" class="st76" d="M998.9 443.1l-59.6 200.1 59.6-200.1c.1.1 0 0 0 0"/><path id="XMLID_51_" class="st75" d="M999 443.2l-59.7 200 59.7-200"/><path id="XMLID_50_" class="st74" d="M999 443.3l-59.7 199.9L999 443.3"/><path id="XMLID_49_" class="st73" d="M999 443.3l-59.7 199.9L999 443.3c0 .1 0 .1 0 0"/><path id="XMLID_48_" class="st73" d="M999.1 443.4l-59.8 199.8 59.8-199.8c0 .1 0 0 0 0"/><path id="XMLID_47_" class="st72" d="M999.1 443.5l-59.8 199.7 59.8-199.7"/><path id="XMLID_46_" class="st72" d="M999.1 443.6l-59.8 199.7 59.8-199.7"/><path id="XMLID_45_" class="st72" d="M999.1 443.6l-59.8 199.6 59.8-199.6c.1.1 0 .1 0 0"/><path id="XMLID_44_" class="st71" d="M999.2 443.7l-59.9 199.5 59.9-199.5c0 .1 0 0 0 0"/><path id="XMLID_43_" class="st71" d="M999.2 443.8l-59.9 199.4 59.9-199.4"/><path id="XMLID_42_" class="st70" d="M999.2 443.9l-59.9 199.4 59.9-199.4"/><path id="XMLID_41_" class="st70" d="M999.2 443.9l-59.9 199.3 59.9-199.3c0 .1 0 .1 0 0"/><path id="XMLID_40_" class="st69" d="M999.2 444l-59.9 199.2L999.2 444c.1.1.1 0 0 0"/><path id="XMLID_39_" class="st69" d="M999.3 444.1l-60 199.1 60-199.1"/><path id="XMLID_38_" class="st69" d="M999.3 444.2l-60 199.1 60-199.1"/><path id="XMLID_37_" class="st68" d="M999.3 444.2l-60 199 60-199c0 .1 0 .1 0 0"/><path id="XMLID_36_" class="st68" d="M999.3 444.3l-60 198.9 60-198.9c0 .1 0 0 0 0"/><path id="XMLID_35_" class="st67" d="M999.3 444.4l-60 198.8 60-198.8"/><path id="XMLID_34_" class="st66" d="M999.3 444.5l-60 198.8 60-198.8"/><path id="XMLID_33_" class="st65" d="M999.3 444.5l-60 198.7 60-198.7c.1.1.1.1 0 0"/><path id="XMLID_32_" class="st64" d="M999.4 444.6l-60.1 198.6 60.1-198.6c0 .1 0 0 0 0"/><path id="XMLID_31_" class="st63" d="M999.4 444.7l-60.1 198.5 60.1-198.5"/><path id="XMLID_30_" class="st62" d="M999.4 444.8l-60.1 198.4 60.1-198.4"/><path id="XMLID_29_" class="st62" d="M999.4 444.8l-60.1 198.4 60.1-198.4c0 .1 0 .1 0 0"/><path id="XMLID_28_" class="st61" d="M999.4 444.9l-60.1 198.3 60.1-198.3c0 .1 0 0 0 0"/><path id="XMLID_27_" class="st60" d="M999.4 445l-60.1 198.2L999.4 445c0 .1 0 0 0 0"/><path id="XMLID_26_" class="st59" d="M999.4 445.1l-60.1 198.1 60.1-198.1"/><path id="XMLID_25_" class="st59" d="M999.8 445.1l-60 198.1 60.2-198v-.2"/><path id="XMLID_24_" class="st58" d="M999.4 445.2l-60.1 198 60.1-198c0 .1 0 .1 0 0"/><path id="XMLID_23_" class="st57" d="M999.4 445.3l-60.1 197.9 60.1-197.9c0 .1 0 0 0 0"/><path id="XMLID_22_" class="st57" d="M999.4 445.4l-60.1 197.8 60.1-197.8"/><path id="XMLID_21_" class="st56" d="M999.4 445.5l-60.1 197.7 60.1-197.7"/><path id="XMLID_20_" class="st56" d="M999.4 445.6l-60.1 197.7 60.1-197.7"/><path id="XMLID_19_" class="st55" d="M999.4 445.6l-60.1 197.6 60.1-197.6c0 .1 0 .1 0 0"/><path id="XMLID_18_" class="st54" d="M999.4 445.7l-60.1 197.5 60.1-197.5c0 .1 0 0 0 0"/><path id="XMLID_17_" class="st53" d="M999.4 445.8l-60.1 197.4 60.1-197.4"/><path id="XMLID_16_" class="st52" d="M999.3 445.9l-60 197.3 60-197.3"/><path id="XMLID_14_" class="st52" d="M999.3 445.9l-60 197.3 60-197.3c0 .1 0 .1 0 0"/><path id="XMLID_13_" class="st51" d="M999.3 446l-60 197.2 60-197.2c0 .1 0 .1 0 0"/><path id="XMLID_12_" class="st51" d="M999.3 446.1l-60 197.1 60-197.1c0 .1 0 0 0 0"/><path id="XMLID_10_" class="st50" d="M999.3 446.2l-60 197 60-197"/><path id="XMLID_9_" class="st49" d="M999.3 446.3l-60 196.9 60-196.9"/><path id="XMLID_8_" class="st48" d="M999.3 446.4l-59.9 196.9 59.9-196.9c-.1 0-.1 0 0 0"/><path id="XMLID_7_" class="st48" d="M999.2 446.4l-59.9 196.8 59.9-196.8c0 .1 0 .1 0 0"/><path id="XMLID_6_" class="st47" d="M999.2 446.5l-59.9 196.7 59.9-196.7c0 .1 0 .1 0 0"/></g></g></g></g><path id="XMLID_15_" d="M236.8 434.2h27.5l44.6 110.5v44.9h-7.2L264.3 490v123.1h-27.5V434.2zm125.9 0h27.5v178.9h-27.5V490l-37.1 99.5h-7.4v-44.4l44.5-110.9z"/><path id="XMLID_962_" d="M456.8 519.8c0 12.5.7 23 2.3 31.7 1.5 8.7 3.7 15.8 6.5 21.4 2.8 5.6 6.3 9.8 10.2 12.5 4 2.8 8.4 4.4 13.4 4.9v24c-9.2-.6-17.4-3-24.9-7.2-7.4-4.1-13.7-10-18.8-17.7-5.1-7.7-9.1-17.1-11.9-28.3-2.9-11.2-4.3-23.9-4.3-38.4v-88.6h27.5v85.7zm101.5-85.6v88.6c0 14.4-1.4 27.2-4.3 38.4s-6.9 20.6-12 28.3c-5.2 7.7-11.4 13.6-18.8 17.7s-15.6 6.5-24.8 7.2v-24c5-.6 9.4-2.3 13.4-5s7.4-6.8 10.2-12.3c2.8-5.5 5.1-12.6 6.6-21.2 1.6-8.7 2.4-19.3 2.4-31.9v-85.7h27.3z"/><path id="XMLID_965_" d="M625.2 434.2V591h76.3v22.1H597.7V434.2h27.5z"/><path id="XMLID_967_" d="M846.1 434.2v19.9h-49.5v159h-27.2v-159h-49.5v-19.9h126.2z"/><path id="XMLID_971_" d="M1018.2 524.1c0-14.4 1.6-27.1 4.8-38.1 3.2-11 7.7-20.3 13.4-27.9 5.7-7.6 12.4-13.5 20.2-17.7 7.7-4.2 16.2-6.7 25.3-7.5v24.3c-5 .8-9.6 2.6-14 5.5-4.4 2.8-8.2 6.9-11.5 12.3-3.3 5.3-5.9 12.1-7.8 20.3-1.9 8.2-2.9 17.8-3 29 .1 11.3 1.2 21 3 29.1 1.9 8.1 4.5 14.9 7.8 20.4 3.3 5.5 7.2 9.7 11.6 12.6 4.4 2.9 9 4.7 13.8 5.3v23.8c-9.2-.6-17.6-3.1-25.3-7.3-7.7-4.2-14.4-10.1-20.2-17.7-5.7-7.6-10.2-17-13.4-28-3.1-11.3-4.7-24-4.7-38.4zm96.6-54.1c-3.5-4.2-7.1-7.4-11-9.5-3.9-2.1-8.1-3.3-12.6-3.6v-24c16.8.8 30.9 7.2 42.3 19.2l-18.7 17.9zm-23.6 121.6c4.5-.5 8.7-1.8 12.7-3.9 4-2.1 7.6-5.2 10.9-9.2l18.7 17.7c-5.7 6-12.1 10.6-19.1 13.8-7.1 3.2-14.8 5.1-23.2 5.6v-24z"/><path id="XMLID_975_" d="M1168.8 524.1c0-14.4 1.6-27.1 4.8-38.2 3.2-11.1 7.7-20.5 13.5-28.2 5.8-7.7 12.6-13.6 20.5-17.7s16.5-6.5 25.8-7.2v24.3c-5.1.6-9.9 2.3-14.4 5.1s-8.4 6.8-11.7 12.1c-3.3 5.3-5.9 12.1-7.9 20.4-2 8.3-3 18-3.2 29.4.1 11.5 1.2 21.3 3.2 29.5 1.9 8.2 4.6 15 8 20.5 3.4 5.5 7.3 9.7 11.8 12.5 4.5 2.8 9.2 4.5 14.2 5v24c-9.2-.6-17.7-3-25.7-7.2-8-4.1-14.8-10-20.6-17.7-5.8-7.7-10.3-17.1-13.5-28.3-3.1-11.1-4.8-23.9-4.8-38.3zm73.7-91.3c9.2.5 17.7 2.8 25.6 7 7.9 4.2 14.7 10.2 20.5 17.8 5.8 7.7 10.3 17.1 13.6 28.2 3.3 11.1 5 23.8 5 38.2 0 14.4-1.7 27.2-5 38.4s-7.8 20.6-13.6 28.3c-5.8 7.7-12.6 13.6-20.4 17.7-7.8 4.1-16.4 6.5-25.7 7.2v-24c5.1-.6 9.9-2.4 14.4-5.2 4.5-2.8 8.4-7 11.7-12.4 3.3-5.4 5.9-12.2 7.9-20.4 1.9-8.2 3-18 3.2-29.5-.2-11.5-1.2-21.3-3.2-29.5s-4.6-15-8-20.4c-3.4-5.4-7.3-9.5-11.8-12.4-4.5-2.8-9.2-4.5-14.2-5v-24z"/><path id="XMLID_978_" d="M1345.1 614.4V435.5h27.5v178.9h-27.5zm92.6-178.9h27.5v178.9h-27.5l-55.8-105.8v-55.8l55.8 106.1V435.5z"/></g></svg>